<svg width="59" height="65" viewBox="0 0 59 65" fill="none" xmlns="http://www.w3.org/2000/svg">
<path d="M56.9872 33.0999C56.9872 41.3793 56.9872 49.6587 56.9872 57.9381C56.9872 59.1564 56.9872 60.3865 56.5259 61.5456C55.9464 63.0004 54.8464 63.4972 53.5217 62.7047C52.3981 62.0424 51.3927 61.1553 50.3873 60.3155C49.7486 59.7951 49.1927 59.1682 48.5895 58.6005C47.6078 57.6779 46.5906 57.6897 45.6208 58.6123C44.3434 59.8306 43.1015 61.0843 41.5638 62.0305C39.4585 63.3079 37.4478 63.3316 35.3425 62.0424C33.8522 61.1316 32.6457 59.9488 31.4038 58.7542C30.2329 57.6188 29.3221 57.6543 28.1157 58.7306C26.862 59.8542 25.5964 60.9897 24.2244 61.9714C22.1782 63.4262 19.99 63.4262 17.9438 61.9714C16.56 60.9779 15.2826 59.8306 14.0052 58.6951C12.8816 57.6897 11.959 57.6543 10.8472 58.6596C9.75904 59.6532 8.68272 60.6822 7.53543 61.6047C6.92038 62.1015 6.19889 62.5155 5.46557 62.8348C4.37742 63.3197 3.47851 62.9649 2.85164 61.9359C2.31939 61.0725 2.13015 60.1144 2.05918 59.1209C2.0237 58.6478 2.0237 58.1747 2.0237 57.7016C2.03552 41.0954 2.07101 24.4774 2.00004 7.85946C1.98821 4.51221 4.54301 2.46601 7.41715 2.47783C22.3201 2.52515 37.2231 2.50149 52.126 2.50149C55.0475 2.50149 56.8571 4.21651 56.9754 7.13797C57.0227 8.17881 56.9872 9.23148 56.9872 10.2723C56.9872 17.8776 56.9872 25.4828 56.9872 33.0999ZM22.0126 27.7774C22.2491 27.7537 22.604 27.7301 22.9588 27.7064C27.3114 27.3161 30.2802 23.3538 29.4404 19.0367C28.7781 15.6658 26.5071 13.5131 22.9233 13.111C17.0331 12.4605 13.6385 17.0851 14.5256 21.8872C15.1643 25.4237 18.0621 27.7064 22.0126 27.7774ZM44.024 15.8195C42.5929 15.8195 41.2327 15.8314 39.8725 15.8077C39.4349 15.7959 39.151 15.9733 38.8671 16.2926C31.6995 24.2645 24.5201 32.2246 17.3406 40.1847C16.7729 40.8116 16.217 41.4384 15.5783 42.1481C15.8858 42.1599 16.0751 42.1836 16.2643 42.1836C17.4234 42.1836 18.5944 42.1599 19.7535 42.1954C20.2029 42.2072 20.5105 42.0653 20.818 41.7223C27.2286 34.5547 33.6511 27.3989 40.0736 20.2313C41.3864 18.7765 42.6993 17.3098 44.024 15.8195ZM37.708 45.0459C37.9209 45.0341 38.2403 45.0104 38.5596 44.9868C43.0541 44.5964 45.9993 40.5159 44.9348 36.1278C44.1186 32.745 41.5638 30.758 37.8381 30.6042C33.5565 30.4268 30.2565 33.5375 30.2329 37.7837C30.2092 41.9234 33.2963 44.9631 37.708 45.0459Z" stroke="#A0E2D9" stroke-width="3" stroke-miterlimit="10"/>
<rect x="6.13184" y="7.98706" width="46.8292" height="45.4519" fill="white"/>
<path d="M26.7008 20.4401C26.7289 17.7269 24.6752 15.7082 21.9413 15.7082C20.5882 15.7082 19.3919 16.1639 18.5278 16.9956C17.6619 17.829 17.1767 18.995 17.1698 20.322L17.1698 20.322L21.9886 24.2881L21.9847 25.0381C21.9848 25.0381 21.9848 25.0381 21.9849 25.0381C23.3182 25.0449 24.4991 24.5933 25.3531 23.7628C26.2078 22.9316 26.6871 21.7673 26.7008 20.4401ZM26.7008 20.4401L25.9509 20.4323L26.7008 20.44C26.7008 20.44 26.7008 20.4401 26.7008 20.4401ZM15.2511 21.7514L15.251 21.7509C14.8461 19.5591 15.4228 17.4397 16.7338 15.9498C18.034 14.4723 20.1073 13.556 22.8281 13.8563C24.4862 14.0425 25.7965 14.6293 26.7621 15.517C27.7277 16.4048 28.3926 17.634 28.6919 19.1792L28.6921 19.1802C29.4471 23.0512 26.7997 26.6046 22.8872 26.9587C22.858 26.9607 22.8285 26.9627 22.7989 26.9647C22.5098 26.9846 22.2064 27.0055 21.9822 27.0267C18.3651 26.9572 15.8267 24.8807 15.2511 21.7514Z" fill="#A0E2D9" stroke="#A0E2D9" stroke-width="1.5"/>
<path d="M42.344 16.5722C42.1987 16.7348 42.0537 16.8972 41.909 17.0592C41.1085 17.9556 40.3157 18.8432 39.5166 19.7288L39.5152 19.7303C33.0927 26.8862 26.6701 34.0539 20.2594 41.2216C20.1545 41.3386 20.0824 41.3849 20.032 41.4075C19.9841 41.429 19.911 41.4493 19.773 41.4456L19.7686 41.4455C18.9235 41.4283 18.0695 41.4297 17.2271 41.4318C17.4518 41.181 17.6724 40.9354 17.8964 40.6881L17.8974 40.687L17.9032 40.6805C25.0806 32.7227 32.2585 24.7643 39.4247 16.7941L39.4275 16.7909C39.5311 16.6743 39.6007 16.6248 39.6498 16.6C39.6917 16.5789 39.7523 16.5583 39.8667 16.5577C40.6877 16.5719 41.5102 16.5733 42.344 16.5722Z" fill="#A0E2D9" stroke="#A0E2D9" stroke-width="1.5"/>
<path d="M30.9827 37.7901L30.9827 37.7878C31.004 33.9743 33.9417 31.1934 37.8069 31.3536L37.807 31.3536C39.5435 31.4252 40.9552 31.9209 42.0168 32.747C43.075 33.5705 43.8328 34.7589 44.2055 36.3037L44.2058 36.3046C45.1617 40.2453 42.5333 43.8973 38.5003 44.2391C38.4002 44.2464 38.2879 44.2533 38.1741 44.2602C37.9984 44.2709 37.8194 44.2819 37.6777 44.2952C33.6649 44.2119 30.9511 41.4814 30.9827 37.7901ZM37.751 42.4722L37.7511 42.4722C39.0759 42.4586 40.2453 41.9842 41.0857 41.1438C41.9266 40.3028 42.3965 39.1369 42.3965 37.8191C42.3965 35.0918 40.3617 33.0929 37.6331 33.1068L37.633 33.1068C36.3116 33.1137 35.1455 33.586 34.3085 34.4303C33.4716 35.2743 33.0074 36.4461 33.0074 37.7718C33.0074 40.5074 35.0276 42.5002 37.751 42.4722Z" fill="#A0E2D9" stroke="#A0E2D9" stroke-width="1.5"/>
</svg>
