<svg width="52" height="63" viewBox="0 0 52 63" fill="none" xmlns="http://www.w3.org/2000/svg">
<path d="M26.1909 62.0804C25.6807 62.0804 25.1704 62.0804 24.6602 62.0804C24.5922 62.0294 24.5242 61.9614 24.4561 61.9444C16.905 60.0566 11.2076 55.5837 6.9899 49.1721C2.80616 42.8625 0.986409 35.7535 0.340141 28.2874C0.221092 26.9609 0.119049 25.6513 0 24.3248C0 20.1921 0 16.0423 0 11.9096C0.0510212 11.8416 0.102042 11.7736 0.136056 11.6885C0.731303 9.52865 2.21092 8.50822 4.43884 8.59326C7.58515 8.71231 10.7315 8.55924 13.7927 7.77692C17.2962 6.87555 20.0343 4.64762 22.6194 2.24963C24.2521 0.735999 26.1058 0.565928 27.9086 1.89248C28.997 2.69181 30.0345 3.57618 31.1229 4.39252C33.0107 5.8041 34.9325 7.19868 37.2625 7.74291C40.3237 8.47421 43.453 8.74632 46.6163 8.54224C47.8919 8.4572 49.0654 8.78034 49.9157 9.76675C50.3919 10.328 50.664 11.0593 51.0382 11.7055C51.0382 15.9063 51.0382 20.09 51.0382 24.2908C50.9871 24.801 50.9021 25.2942 50.8851 25.8044C50.613 31.7229 49.5756 37.4712 47.2966 42.9815C44.3204 50.1415 39.6775 55.8729 32.7386 59.5124C30.6637 60.6008 28.3678 61.2471 26.1909 62.0804ZM25.4085 4.71565C19.5751 11.1783 12.16 12.9301 3.92863 12.3518C3.99666 18.7975 3.65652 25.0391 4.60891 31.2296C5.45926 36.791 7.07493 42.1142 10.1702 46.8591C13.6907 52.2504 18.3846 56.179 24.6432 58.0328C25.1194 58.1688 25.7147 58.1688 26.2079 58.0328C30.2385 56.9273 33.674 54.7844 36.6332 51.8932C42.1945 46.468 44.9326 39.6481 46.2422 32.148C47.1606 26.8418 47.0755 21.4846 47.0585 16.1274C47.0585 14.9199 47.0585 13.7124 47.0585 12.3178C38.7421 13.0151 31.378 10.9742 25.4085 4.71565Z" fill="#A0E2D9"/>
<path d="M22.2281 34.9542C25.6635 31.6038 28.8098 28.5256 31.9731 25.4473C33.7758 23.6785 35.5786 21.9268 37.3813 20.1581C37.9766 19.5628 38.6739 19.2227 39.5072 19.3077C40.4766 19.4268 41.2079 19.92 41.5311 20.8894C41.8542 21.8418 41.5821 22.6751 40.8848 23.3724C38.4528 25.7534 36.0208 28.1174 33.5888 30.4984C30.4595 33.5766 27.3302 36.6549 24.2179 39.7332C23.1975 40.7366 21.6328 40.7536 20.6294 39.7502C17.6702 36.825 14.6939 33.9168 11.7687 30.9576C11.3776 30.5494 11.0204 30.0052 10.8843 29.4609C10.6292 28.4235 11.1905 27.4711 12.1259 26.9949C13.1293 26.4847 14.1327 26.6548 15.0001 27.5051C16.5137 28.9677 18.0273 30.4133 19.4899 31.91C20.4253 32.8794 21.2927 33.8998 22.2281 34.9542Z" fill="#A0E2D9"/>
</svg>
