<svg width="88" height="88" viewBox="0 0 88 88" fill="none" xmlns="http://www.w3.org/2000/svg">
<path d="M27.5492 36.7748C30.319 33.4413 33.4873 30.6034 36.9277 28.0571C43.1087 23.4699 49.6785 19.5825 57.1424 17.4055C59.2222 16.8029 61.3409 16.4725 63.5179 16.628C67.6483 16.9293 70.2043 19.4853 70.5056 23.6157C70.6999 26.3369 70.1168 28.9415 69.281 31.5073C67.4636 37.0177 64.6938 42.0617 61.4672 46.8627C58.3087 51.5568 54.7516 55.8913 50.3588 59.6039C50.5726 59.9732 50.7962 60.3328 50.9808 60.7118C52.5844 63.8703 52.7204 67.1747 51.5348 70.4401C49.3092 76.6115 44.965 80.4698 38.4243 81.568C35.0811 82.1317 32.0197 81.325 29.3763 79.1092C28.1809 78.1082 28.2003 77.0391 29.4443 76.1255C30.6883 75.212 31.7185 74.1429 32.2821 72.6851C32.9624 70.9164 32.5737 69.3031 31.4269 67.8647C31.2714 67.6703 30.8632 67.5926 30.5717 67.5731C28.5307 67.476 26.5676 67.0289 24.8377 65.9015C24.1185 65.435 23.7686 65.5905 23.273 66.1445C22.5829 66.9123 21.8443 67.6315 21.0863 68.3312C20.1144 69.2253 18.8121 69.0309 18.3553 67.9327C18.0249 67.1552 18.3262 66.5041 18.8801 65.9501C19.6965 65.1143 20.5226 64.2882 21.3584 63.4719C21.6013 63.2289 21.6888 63.0443 21.475 62.7138C20.2796 60.9353 19.6576 58.9721 19.609 56.8438C19.5896 55.9691 19.1717 55.5317 18.4914 55.1624C16.5865 54.1323 14.7594 54.3655 13.0878 55.6095C12.2812 56.2218 11.6009 57.0187 10.9497 57.8059C10.1139 58.8166 9.03514 58.9235 8.16046 57.9128C5.55586 54.9389 4.93387 51.4596 5.70165 47.6985C7.07198 41.0024 13.0392 35.6182 19.8131 34.9282C22.408 34.6658 24.8668 35.142 27.1021 36.5804C27.2382 36.6387 27.3742 36.6776 27.5492 36.7748ZM26.4024 63.0151C26.587 63.1414 26.7134 63.2483 26.8591 63.3164C27.1021 63.4427 27.3548 63.5593 27.6075 63.6565C30.0566 64.5895 32.5543 64.5021 35.0422 63.9384C40.7471 62.6652 45.4995 59.6427 49.7563 55.7941C53.634 52.2857 56.8023 48.165 59.611 43.7819C60.8647 41.8284 61.992 39.7875 63.1874 37.7563C55.3348 36.318 50.7767 31.7599 49.3772 23.985C42.2826 27.8142 35.7323 32.2847 30.4356 38.3978C27.3159 42.0034 24.8863 46.0075 23.5354 50.6044C22.8745 52.8397 22.5538 55.1236 22.9036 57.456C23.0786 58.6028 23.3799 59.701 24.099 60.7118C24.3323 60.4785 24.5072 60.3036 24.6822 60.1287C27.7727 57.0381 30.8729 53.9379 33.9635 50.8474C34.2162 50.5947 34.498 50.3517 34.8187 50.1671C35.3824 49.8366 36.189 49.9824 36.6653 50.4392C37.1317 50.9057 37.2872 51.722 36.9665 52.276C36.7916 52.587 36.5389 52.8786 36.2862 53.1312C33.186 56.2509 30.0663 59.3512 26.9563 62.4611C26.7814 62.6361 26.6065 62.811 26.4024 63.0151ZM64.6452 34.5103C65.6754 32.1001 66.6375 29.6996 67.0069 27.1339C67.2012 25.8316 67.2401 24.4904 67.1526 23.1784C67.0263 21.3804 65.8212 20.1559 64.0427 19.9712C62.9347 19.8546 61.7977 19.8643 60.6995 19.9907C57.988 20.3114 55.4805 21.2832 52.9634 22.3037C52.5747 22.4592 52.6038 22.7022 52.6233 22.9937C52.8274 26.094 53.9936 28.7569 56.1997 30.9436C58.5225 33.2663 61.3506 34.4228 64.6452 34.5103ZM19.8617 52.1594C20.7364 47.4167 22.8648 43.3057 25.5277 39.4182C25.3916 39.321 25.3139 39.2433 25.2167 39.185C25.0806 39.1072 24.9348 39.0198 24.7988 38.942C23.2341 38.1354 21.5819 37.9021 19.8714 38.1354C16.6157 38.5727 13.9917 40.1277 11.8535 42.5962C9.73488 45.0453 8.55893 47.8346 8.71442 51.1195C8.77274 52.2274 9.03514 53.2673 9.60854 54.3072C12.5727 51.4791 15.8673 50.3226 19.8617 52.1594ZM47.7251 61.5767C43.7987 64.2785 39.6683 66.3875 34.9645 67.2621C36.8013 71.2371 35.6351 74.5414 32.8069 77.5056C34.3619 78.3608 35.9558 78.5358 37.5885 78.3803C40.3972 78.0984 42.7783 76.8836 44.8386 74.9787C47.3363 72.656 48.8621 69.8473 49.0371 66.4069C49.1343 64.6964 48.7552 63.0928 47.7251 61.5767Z" fill="#A0E2D9"/>
<path d="M50.4072 36.7358C53.2547 39.5834 53.245 44.1997 50.3877 47.0376C47.5791 49.8268 42.9335 49.8268 40.1151 47.0473C37.287 44.258 37.2773 39.5445 40.0957 36.7261C42.9433 33.8785 47.5596 33.8882 50.4072 36.7358ZM42.3893 44.7148C43.9734 46.3184 46.5197 46.3184 48.1039 44.7342C49.6783 43.1598 49.6783 40.5358 48.1039 39.0002C46.5392 37.455 43.9929 37.455 42.4087 39.0002C40.8246 40.5455 40.8052 43.1112 42.3893 44.7148Z" fill="#A0E2D9"/>
</svg>
