<svg width="33" height="20" viewBox="0 0 33 20" fill="none" xmlns="http://www.w3.org/2000/svg">
<path d="M9.52867 19.0595C6.71788 19.016 4.33616 17.9825 2.44571 15.9031C0.968803 14.2831 0.157279 12.3589 0.0204709 10.1646C-0.141212 7.52041 0.65477 5.19274 2.41152 3.20956C4.03767 1.37535 6.09913 0.32635 8.5337 0.0656509C11.0802 -0.207463 13.3686 0.493942 15.4021 2.03952C15.542 2.14504 15.5389 2.21952 15.4177 2.33746C14.2734 3.45474 13.4744 4.78927 12.952 6.2945C12.868 6.53968 12.8774 6.5583 13.1354 6.5583C13.5894 6.56141 13.5863 6.56141 13.7449 6.15484C14.2361 4.87928 14.9668 3.75889 15.9276 2.78747C16.0582 2.65402 16.139 2.6354 16.282 2.77816C17.2832 3.78993 18.0512 4.94755 18.5301 6.28829C18.6016 6.49002 18.6949 6.57382 18.9156 6.56451C19.382 6.54589 19.3789 6.56141 19.2203 6.12691C18.6948 4.68685 17.8989 3.4206 16.8075 2.34056C16.6334 2.16987 16.6334 2.15745 16.8293 2.00538C18.1943 0.95327 19.7271 0.304625 21.4372 0.0842723C23.3308 -0.160909 25.1466 0.127722 26.8629 0.965684C28.6135 1.81606 29.9816 3.09162 30.9579 4.77375C31.9062 6.40623 32.3291 8.17526 32.2202 10.056C32.0897 12.3185 31.2564 14.2986 29.7173 15.9714C28.3305 17.4797 26.6297 18.4636 24.6212 18.8577C21.7886 19.4133 19.1954 18.8267 16.8759 17.0949C16.6303 16.9118 16.6334 16.9118 16.8417 16.6976C17.9424 15.5648 18.7726 14.2644 19.2732 12.7623C19.354 12.5233 19.3509 12.5202 19.0928 12.5202C18.6358 12.5171 18.6358 12.5171 18.471 12.9423C17.9766 14.2086 17.2459 15.3197 16.282 16.2818C16.1452 16.4183 16.0613 16.4152 15.9276 16.2787C14.9295 15.2824 14.1833 14.1248 13.7076 12.7996C13.6298 12.5854 13.5241 12.5109 13.3002 12.5202C12.8494 12.5389 12.8463 12.4768 13.0111 12.9423C13.5241 14.3793 14.3232 15.6362 15.3897 16.7256C15.5576 16.8963 15.5576 16.9056 15.3617 17.0577C13.7822 18.2867 11.6803 19.0905 9.52867 19.0595ZM2.36488 8.7339C2.44572 8.83321 2.4395 8.91701 2.44571 8.99149C2.5079 9.71773 2.54833 10.4471 2.62917 11.1733C2.70379 11.8499 2.53278 11.7288 3.21371 11.7444C3.26035 11.7444 3.30699 11.7413 3.35363 11.7444C3.48422 11.7568 3.55884 11.704 3.61481 11.5799C3.96616 10.7822 4.32373 9.98774 4.6813 9.19633C4.73726 9.07219 4.78079 8.93873 4.88962 8.83942C4.8523 9.16529 4.79323 9.48496 4.73415 9.80463C4.62844 10.3695 4.51961 10.9374 4.41389 11.5023C4.37347 11.7257 4.38902 11.7444 4.61911 11.7444C4.78701 11.7444 4.95491 11.7381 5.12281 11.7475C5.25029 11.7537 5.3187 11.7102 5.34358 11.5737C5.57988 10.3043 5.81929 9.03184 6.06182 7.76248C6.09291 7.6042 6.04627 7.54213 5.87837 7.54524C5.52391 7.55144 5.16634 7.55765 4.81188 7.54524C4.63465 7.53903 4.5476 7.60731 4.47919 7.76248C4.17759 8.44216 3.86977 9.11874 3.55884 9.79532C3.51842 9.88532 3.49666 9.99705 3.38472 10.0715C3.3754 10.0126 3.36606 9.97532 3.36295 9.93498C3.3101 9.22116 3.25413 8.50734 3.2106 7.79352C3.20127 7.61972 3.14841 7.53903 2.95875 7.54524C2.61051 7.55765 2.26227 7.55455 1.91092 7.54524C1.75856 7.54213 1.68083 7.58558 1.65285 7.74697C1.57822 8.18767 1.48495 8.62838 1.39789 9.06908C1.2362 9.89773 1.08074 10.7264 0.912842 11.5519C0.881749 11.7009 0.928384 11.7475 1.07141 11.7444C1.23931 11.7381 1.40721 11.7319 1.57511 11.7444C1.7368 11.7568 1.80209 11.6823 1.82697 11.5333C1.94823 10.8691 2.07572 10.205 2.2032 9.54082C2.25294 9.28323 2.3058 9.02253 2.36488 8.7339ZM29.9878 11.7444C30.0624 11.7444 30.1339 11.7444 30.2085 11.7444C30.5039 11.7444 30.5039 11.7444 30.5537 11.4619C30.6563 10.9095 30.7589 10.3571 30.8615 9.80463C31.0014 9.04736 31.1413 8.29009 31.2875 7.53592C31.3186 7.37764 31.2688 7.33109 31.1164 7.3373C30.9361 7.34661 30.7527 7.34661 30.5723 7.3373C30.4106 7.32799 30.3485 7.39626 30.3267 7.55455C30.2769 7.87732 30.2054 8.20009 30.1432 8.51975C30.1246 8.61286 30.0779 8.69976 29.9909 8.59114C29.7142 8.23733 29.3348 8.24664 28.9462 8.27147C28.5793 8.29319 28.2621 8.43596 28.0414 8.7308C27.6496 9.24909 27.4288 9.82946 27.4786 10.4905C27.5532 11.5147 28.3305 11.9833 29.2136 11.5426C29.3255 11.4868 29.4001 11.4774 29.4468 11.6078C29.4872 11.7226 29.568 11.7568 29.6831 11.7506C29.7857 11.7381 29.8883 11.7444 29.9878 11.7444ZM7.47032 8.26216C7.28688 8.27457 7.07544 8.26526 6.8609 8.2963C6.31988 8.37389 6.42871 8.33044 6.32611 8.8208C6.27636 9.05357 6.30434 9.0815 6.54065 9.04425C6.90755 8.98529 7.27444 8.96046 7.64445 8.97598C7.74705 8.97908 7.84654 8.99149 7.9336 9.04736C8.06419 9.13426 8.08285 9.26461 8.05798 9.40427C8.02999 9.54703 7.90873 9.51289 7.81235 9.516C7.63823 9.5222 7.4641 9.51289 7.28998 9.52531C6.51577 9.57186 5.97476 9.99395 5.83173 10.6519C5.73534 11.0926 5.9219 11.4743 6.33232 11.6606C6.67123 11.8126 7.01948 11.7661 7.35528 11.6637C7.50453 11.6171 7.63201 11.5271 7.74394 11.7164C7.77193 11.763 7.84344 11.7475 7.89629 11.7475C8.0642 11.7475 8.2321 11.7381 8.4 11.7506C8.55546 11.763 8.61143 11.6885 8.63942 11.5488C8.7327 11.0616 8.83219 10.5774 8.92858 10.0902C8.98143 9.81394 9.0374 9.53772 9.02186 9.2553C8.99698 8.8239 8.78866 8.52596 8.38445 8.36768C8.09218 8.25285 7.7968 8.25595 7.47032 8.26216ZM23.7163 8.26526C23.5018 8.27147 23.2873 8.26526 23.0727 8.2963C22.6374 8.36458 22.6343 8.36147 22.5441 8.79907C22.4944 9.03805 22.5286 9.0815 22.768 9.04115C23.1194 8.98529 23.4738 8.96046 23.8314 8.97287C23.9247 8.97598 24.0211 8.98218 24.1081 9.02253C24.2605 9.09081 24.3009 9.21805 24.2853 9.37013C24.2667 9.53772 24.133 9.50979 24.0211 9.50979C23.8532 9.51289 23.6853 9.50358 23.5174 9.5191C23.0074 9.56876 22.5441 9.71773 22.2394 10.1708C21.8632 10.7295 21.9876 11.375 22.5193 11.6388C22.8675 11.8126 23.2282 11.7661 23.5764 11.6544C23.7195 11.6109 23.8407 11.5147 23.9495 11.704C23.9775 11.7506 24.0459 11.7413 24.0988 11.7413C24.2791 11.7413 24.4626 11.7381 24.6429 11.7413C24.7517 11.7444 24.817 11.7102 24.8388 11.5923C24.9663 10.9281 25.1155 10.2671 25.2243 9.6029C25.3518 8.81149 24.9196 8.30561 24.1174 8.26526C23.9869 8.25905 23.8532 8.26526 23.7163 8.26526ZM18.9747 9.84808C18.9809 10.4284 19.1208 10.8692 19.4753 11.2447C20.0598 11.8654 21.0486 11.8002 21.6767 11.5737C21.7637 11.5426 21.7824 11.4837 21.7513 11.3999C21.7046 11.2664 21.6642 11.133 21.6176 10.9995C21.5088 10.6798 21.5523 10.7295 21.2445 10.7854C20.4578 10.9312 19.9199 10.4564 19.9728 9.66497C20.0318 8.78666 20.7221 8.14112 21.4994 8.34595C21.913 8.45458 22.1182 8.31181 22.3389 8.05112C22.3576 8.02939 22.3762 8.01077 22.3949 7.99525C22.5068 7.90835 22.4788 7.83697 22.3856 7.75317C22.255 7.63524 22.1151 7.53282 21.9472 7.47385C21.4186 7.29074 20.8931 7.28764 20.3832 7.53903C19.3944 8.02629 19.0275 8.88597 18.9747 9.84808ZM15.542 10.1771C15.542 10.1771 15.542 10.174 15.542 10.1771C15.8374 10.1771 16.1328 10.174 16.4282 10.1771C16.5526 10.1802 16.6054 10.1305 16.6241 10.0064C16.6583 9.77359 16.68 9.54082 16.6614 9.30495C16.6241 8.86115 16.4157 8.51975 15.9836 8.37078C15.514 8.2094 15.0321 8.20009 14.5688 8.40802C13.8723 8.71838 13.4122 9.66807 13.5614 10.4657C13.7044 11.2385 14.1304 11.6264 14.9108 11.7226C15.2093 11.7599 15.4985 11.7226 15.7939 11.704C16.2758 11.673 16.3038 11.6419 16.4033 11.1702C16.4064 11.1578 16.4095 11.1454 16.4126 11.1298C16.4562 10.9188 16.4499 10.9219 16.2323 10.9405C15.8188 10.9747 15.4052 11.0336 14.9886 10.9654C14.659 10.9095 14.4787 10.6922 14.4849 10.3695C14.488 10.2391 14.5346 10.174 14.6745 10.174C14.9637 10.1802 15.2529 10.1771 15.542 10.1771ZM10.8905 8.27147C10.7444 8.27147 10.5952 8.25905 10.449 8.27457C9.72145 8.34595 9.31413 8.79907 9.35456 9.47565C9.3701 9.74566 9.49136 9.94118 9.7401 10.0622C9.97641 10.1771 10.2034 10.3074 10.4366 10.4253C10.592 10.506 10.6729 10.6271 10.6325 10.8009C10.5983 10.9623 10.4677 11.0274 10.3184 11.0305C10.0573 11.0367 9.79296 11.0492 9.53489 11.0305C9.09648 10.9964 9.1027 10.9871 9.01253 11.4216C8.98144 11.5768 9.02186 11.645 9.17732 11.6668C9.65615 11.7413 10.1381 11.7754 10.62 11.6978C11.2637 11.5954 11.6368 11.1236 11.5932 10.4812C11.5777 10.2515 11.4813 10.0715 11.2854 9.94429C11.0678 9.80152 10.8377 9.67428 10.6014 9.55945C10.449 9.48496 10.3464 9.37323 10.3775 9.19633C10.4117 9.01322 10.5703 8.98839 10.7195 8.97908C10.9341 8.96356 11.1486 8.96667 11.36 9.00391C11.4409 9.01943 11.5342 9.02563 11.559 8.92011C11.5995 8.737 11.7456 8.57251 11.671 8.36768C11.6585 8.33664 11.5932 8.32423 11.5466 8.31181C11.3321 8.24974 11.1113 8.25905 10.8905 8.27147ZM11.8016 10.8536C11.7922 11.4774 12.1249 11.7785 12.6908 11.7444C13.1914 11.7164 13.266 11.6357 13.2847 11.1454C13.2909 10.9964 13.2598 10.9281 13.0919 10.9219C12.8338 10.9157 12.7281 10.7791 12.7717 10.5247C12.8494 10.0839 12.9396 9.64324 13.0173 9.20254C13.0422 9.06598 13.1043 9.01012 13.2443 9.01012C13.5552 9.01322 13.5334 9.06598 13.6143 8.70286C13.6329 8.62527 13.6516 8.54769 13.6702 8.46699C13.6951 8.35526 13.6516 8.3025 13.5334 8.30561C13.4868 8.30871 13.4402 8.3025 13.3935 8.30561C13.2318 8.31802 13.1945 8.24354 13.2318 8.09767C13.2754 7.93008 13.3002 7.75628 13.3438 7.58868C13.3811 7.44282 13.3407 7.37144 13.179 7.37764C13.0173 7.38385 12.8556 7.38695 12.697 7.37764C12.5416 7.36833 12.4701 7.4242 12.439 7.58248C12.3177 8.23423 12.1778 8.88287 12.0534 9.53151C11.9632 10.0033 11.842 10.4626 11.8016 10.8536ZM25.7156 11.7226C25.7685 11.7226 25.8244 11.7226 25.8773 11.7226C26.1602 11.7226 26.1602 11.7226 26.2069 11.4402C26.2504 11.1888 26.2971 10.9405 26.3437 10.6891C26.4121 10.326 26.465 9.95981 26.6391 9.62772C26.779 9.35771 26.9687 9.15288 27.2982 9.13426C27.3822 9.12805 27.4351 9.09391 27.4568 9.01012C27.5128 8.80838 27.5688 8.60976 27.6278 8.41113C27.662 8.2963 27.6123 8.26216 27.5066 8.27768C27.292 8.31181 27.0837 8.36147 26.9127 8.50734C26.8101 8.59424 26.7417 8.57872 26.7199 8.44527C26.695 8.30561 26.6142 8.25905 26.4774 8.26836C26.3779 8.27457 26.2753 8.26836 26.1758 8.26836C25.8804 8.26836 25.8835 8.26836 25.8307 8.55389C25.6659 9.45082 25.4949 10.3446 25.3301 11.2385C25.2337 11.763 25.1746 11.7195 25.7156 11.7226ZM17.1247 11.7444C17.1993 11.7444 17.2739 11.735 17.3454 11.7475C17.5289 11.7723 17.5973 11.6854 17.619 11.5178C17.6408 11.3378 17.6781 11.1609 17.7154 10.984C17.8118 10.534 17.8398 10.0653 18.0637 9.64945C18.1725 9.45082 18.3031 9.24288 18.5363 9.22116C18.8317 9.19633 18.9094 9.02563 18.9498 8.78666C18.9685 8.68114 18.9996 8.57872 19.0307 8.4763C19.0711 8.34595 19.0244 8.2994 18.8938 8.32423C18.6855 8.36147 18.4896 8.42044 18.3217 8.55389C18.2502 8.60976 18.1694 8.65631 18.1476 8.51975C18.1196 8.33044 17.9984 8.30561 17.8429 8.31802C17.7372 8.32423 17.6284 8.32733 17.5226 8.31802C17.3641 8.30561 17.2988 8.36768 17.2708 8.52596C17.1029 9.45393 16.9257 10.3819 16.7547 11.3099C16.6738 11.7413 16.6769 11.7444 17.1247 11.7444Z" fill="white"/>
<path d="M29.8228 9.7826C29.8384 10.0309 29.714 10.304 29.5212 10.543C29.3191 10.7944 29.0548 10.875 28.8092 10.7757C28.5791 10.6826 28.4206 10.3847 28.4516 10.0898C28.4827 9.80432 28.5947 9.54672 28.7874 9.32948C29.0082 9.07809 29.2974 8.97257 29.515 9.06567C29.8011 9.18982 29.8135 9.45051 29.8228 9.7826Z" fill="white"/>
<path d="M7.14395 11.0401C7.01025 11.0276 6.85168 10.9997 6.78017 10.8414C6.69933 10.6676 6.77084 10.5125 6.88588 10.379C7.07244 10.1618 7.51085 10.0562 7.78135 10.1524C7.83732 10.1742 7.8653 10.2021 7.87152 10.2673C7.90261 10.6738 7.57614 11.037 7.14395 11.0401Z" fill="white"/>
<path d="M23.7476 10.1303C23.8285 10.1365 23.9093 10.1396 23.987 10.1521C24.0523 10.1614 24.0896 10.2017 24.0928 10.2762C24.1145 10.6641 23.8471 10.99 23.4647 11.0335C23.275 11.0521 23.0916 11.0241 22.9983 10.8317C22.9081 10.6486 23.0014 10.4934 23.1289 10.3631C23.2937 10.1862 23.5051 10.1179 23.7476 10.1303Z" fill="white"/>
<path d="M15.1813 9.58706C15.0413 9.58706 14.9014 9.59016 14.7615 9.58706C14.5749 9.58085 14.5532 9.5405 14.6247 9.3636C14.7553 9.05014 15.0569 8.86392 15.3896 8.89496C15.5699 8.91048 15.7067 8.98807 15.7782 9.16187C15.8995 9.45981 15.8187 9.58395 15.5015 9.58706C15.3958 9.59016 15.287 9.59016 15.1813 9.58706C15.1813 9.59016 15.1813 9.59016 15.1813 9.58706Z" fill="white"/>
</svg>
