<svg width="29" height="18" viewBox="0 0 29 18" fill="none" xmlns="http://www.w3.org/2000/svg">
<path d="M9.05176 2.96155H27.0005" stroke="white" stroke-width="3" stroke-miterlimit="10" stroke-linecap="round"/>
<path d="M9.05176 9.37183H27.0005" stroke="white" stroke-width="3" stroke-miterlimit="10" stroke-linecap="round"/>
<path d="M9.05176 15.782H27.0005" stroke="white" stroke-width="3" stroke-miterlimit="10" stroke-linecap="round"/>
<path d="M2.64103 3.28205C2.99505 3.28205 3.28205 2.99505 3.28205 2.64103C3.28205 2.287 2.99505 2 2.64103 2C2.287 2 2 2.287 2 2.64103C2 2.99505 2.287 3.28205 2.64103 3.28205Z" stroke="white" stroke-width="3" stroke-miterlimit="10" stroke-linecap="round"/>
<path d="M2.64103 9.69233C2.99505 9.69233 3.28205 9.40533 3.28205 9.0513C3.28205 8.69728 2.99505 8.41028 2.64103 8.41028C2.287 8.41028 2 8.69728 2 9.0513C2 9.40533 2.287 9.69233 2.64103 9.69233Z" stroke="white" stroke-width="3" stroke-miterlimit="10" stroke-linecap="round"/>
<path d="M2.64103 16.1026C2.99505 16.1026 3.28205 15.8156 3.28205 15.4616C3.28205 15.1076 2.99505 14.8206 2.64103 14.8206C2.287 14.8206 2 15.1076 2 15.4616C2 15.8156 2.287 16.1026 2.64103 16.1026Z" stroke="white" stroke-width="3" stroke-miterlimit="10" stroke-linecap="round"/>
</svg>
