<svg width="27" height="27" viewBox="0 0 27 27" fill="none" xmlns="http://www.w3.org/2000/svg">
<path d="M24.5391 22.2682H22.7546C22.3815 22.2682 22.0732 21.96 22.0732 21.5869V10.4904C22.0732 10.1173 22.3815 9.80908 22.7546 9.80908H24.5391C24.9122 9.80908 25.2205 10.1173 25.2205 10.4904V21.5706C25.2205 21.96 24.9122 22.2682 24.5391 22.2682Z" stroke="#333333" stroke-miterlimit="10"/>
<path d="M25.3184 22.3168H21.9441C21.5709 22.3168 21.2627 22.6251 21.2627 22.9982V25.5127C21.2627 25.8859 21.5709 26.1941 21.9441 26.1941H25.3184C25.6915 26.1941 25.9998 25.8859 25.9998 25.5127V22.9982C26.016 22.6251 25.7077 22.3168 25.3184 22.3168Z" stroke="#333333" stroke-miterlimit="10"/>
<path d="M22.0732 13.7512C22.0732 13.7512 23.3386 11.8207 25.2367 11.7882" stroke="#333333" stroke-miterlimit="10"/>
<path d="M23.6469 9.809V5.98041C23.6469 5.4775 23.728 4.97459 23.8902 4.50413L24.2795 3.33609C24.3769 3.0603 24.2795 2.76829 24.0524 2.58984L22.0732 1" stroke="#333333" stroke-miterlimit="10" stroke-linecap="round" stroke-linejoin="round"/>
<path d="M14.9678 19.8834H18.7801C19.1533 19.8834 19.5102 20.0294 19.7697 20.2889C20.3213 20.8405 20.3213 21.7165 19.7697 22.2519L19.7535 22.2681C19.4939 22.5277 19.137 22.6737 18.7639 22.6737H18.1799C17.8392 22.6737 17.5148 22.8035 17.2552 23.0306L17.2065 23.063C16.6063 23.5984 16.5901 24.5393 17.1741 25.1071L17.2065 25.1233C17.4661 25.3667 17.8068 25.5127 18.1637 25.5127H21.2622" stroke="#333333" stroke-miterlimit="10" stroke-linecap="round" stroke-linejoin="round"/>
<path d="M1.68136 18.5693H14.1405C14.5136 18.5693 14.8219 18.8776 14.8219 19.2507V25.5289C14.8219 25.9021 14.5136 26.2103 14.1405 26.2103H1.68136C1.30823 26.2103 1 25.9021 1 25.5289V19.2507C1 18.8776 1.30823 18.5693 1.68136 18.5693Z" stroke="#333333" stroke-miterlimit="10"/>
<path d="M4.84444 23.6795H11.0253C11.3985 23.6795 11.7067 23.9877 11.7067 24.3609V25.5289C11.7067 25.902 11.3985 26.2103 11.0253 26.2103H4.84444C4.47132 26.2103 4.16309 25.902 4.16309 25.5289V24.3609C4.16309 23.9877 4.47132 23.6795 4.84444 23.6795Z" stroke="#333333" stroke-miterlimit="10"/>
<path d="M2.8494 18.5693H12.8751C13.2482 18.5693 13.5565 18.261 13.5565 17.8879L14.8381 6.49947C14.8381 6.12635 14.5298 5.81812 14.1567 5.81812H1.68136C1.30823 5.81812 1 6.12635 1 6.49947L2.15182 17.8879C2.15182 18.261 2.46005 18.5693 2.8494 18.5693Z" stroke="#333333" stroke-miterlimit="10"/>
<path d="M1.19434 8.39758H14.6106" stroke="#333333" stroke-miterlimit="10"/>
<path d="M4.78027 9.80908H6.38633" stroke="#333333" stroke-miterlimit="10" stroke-linecap="round" stroke-linejoin="round"/>
<path d="M4.78027 11.5935H6.38633" stroke="#333333" stroke-miterlimit="10" stroke-linecap="round" stroke-linejoin="round"/>
<path d="M4.78027 13.2158H6.38633" stroke="#333333" stroke-miterlimit="10" stroke-linecap="round" stroke-linejoin="round"/>
<path d="M4.78027 14.838H6.38633" stroke="#333333" stroke-miterlimit="10" stroke-linecap="round" stroke-linejoin="round"/>
<path d="M4.78027 16.6226H6.38633" stroke="#333333" stroke-miterlimit="10" stroke-linecap="round" stroke-linejoin="round"/>
</svg>
