<svg width="26" height="27" viewBox="0 0 26 27" fill="none" xmlns="http://www.w3.org/2000/svg">
<path d="M3.27461 23.547L22.5468 4.27481C22.8555 3.96614 23.3654 3.96614 23.6741 4.27481L24.4659 5.06664C24.7746 5.37531 24.7746 5.8853 24.4659 6.19398L5.19377 25.4662C4.8851 25.7748 4.37511 25.7748 4.06643 25.4662L3.27461 24.6743C2.96593 24.3657 2.96593 23.8557 3.27461 23.547Z" stroke="#333333" stroke-miterlimit="10"/>
<path d="M18.1311 8.6901L21.8486 4.97256C22.1573 4.66388 22.1573 4.15389 21.8486 3.84522L20.265 2.26157C19.9563 1.95289 19.4463 1.95289 19.1377 2.26157L15.4201 5.97911C15.1114 6.28779 15.1114 6.79778 15.4201 7.10646L17.0038 8.6901C17.3124 8.99878 17.809 9.0122 18.1311 8.6901Z" stroke="#333333" stroke-miterlimit="10"/>
<path d="M16.2793 5.12018L17.769 6.60988" stroke="#333333" stroke-miterlimit="10" stroke-linecap="round" stroke-linejoin="round"/>
<path d="M17.3525 4.04657L18.8422 5.53627" stroke="#333333" stroke-miterlimit="10" stroke-linecap="round" stroke-linejoin="round"/>
<path d="M18.4268 2.9729L19.9165 4.4626" stroke="#333333" stroke-miterlimit="10" stroke-linecap="round" stroke-linejoin="round"/>
</svg>
