<svg width="30" height="30" viewBox="0 0 30 30" fill="none" xmlns="http://www.w3.org/2000/svg">
<path d="M11.6969 12.6804L22.1689 1.3308C22.4417 1.05803 22.8923 1.05803 23.1651 1.3308L28.6324 6.79807C28.9051 7.07084 28.9051 7.5215 28.6324 7.79427L17.2116 18.1951C16.9388 18.4679 16.4882 18.4679 16.2154 18.1951L11.6969 13.6766C11.4241 13.4039 11.4241 12.9532 11.6969 12.6804Z" stroke="#333" stroke-miterlimit="10"/>
<path d="M10.4986 18.4085L11.7913 19.7012C12.0641 19.974 12.5148 19.974 12.7875 19.7012L14.7444 17.7444C15.0171 17.4716 15.0171 17.0209 14.7444 16.7482L13.4517 15.4555C13.1789 15.1827 12.7282 15.1827 12.4555 15.4555L10.4986 17.4123C10.214 17.6732 10.214 18.1239 10.4986 18.4085Z" stroke="#333" stroke-miterlimit="10"/>
<path d="M12.6338 11.6724L18.2315 17.2701" stroke="#333" stroke-miterlimit="10"/>
<path d="M6.42451 21.663C6.42451 21.663 8.91876 22.8522 9.93181 20.4323C9.93181 20.4323 11.4903 23.5586 8.81186 24.612C6.27287 25.5986 3.53507 23.8927 3.08092 23.3195C2.69474 22.8167 2.34965 22.2901 2.41306 21.6647C2.44694 21.3438 2.57484 20.9961 2.84102 20.6507C2.999 20.45 3.1969 20.2946 3.40983 20.2128C4.19241 19.8842 5.0898 20.2288 5.53728 20.9564C5.73254 21.1998 5.98826 21.4767 6.42451 21.663Z" stroke="#333" stroke-miterlimit="10" stroke-linejoin="round"/>
</svg>
