<svg width="13" height="27" viewBox="0 0 13 27" fill="none" xmlns="http://www.w3.org/2000/svg">
<path d="M11.7507 6.98538V25.1917C11.7507 25.6343 11.384 26 10.9401 26H1.81065C1.36672 26 1 25.6343 1 25.1917V6.98538C1 6.54273 1.36672 6.17706 1.81065 6.17706H10.9208C11.384 6.17706 11.7507 6.54273 11.7507 6.98538Z" stroke="#333333" stroke-miterlimit="10"/>
<path d="M8.23782 5.36875V1.80831C8.23782 1.36567 7.87109 1 7.42717 1H5.32334C4.87942 1 4.5127 1.36567 4.5127 1.80831V5.3495C4.5127 5.79215 4.87942 6.15782 5.32334 6.15782H7.42717C7.87109 6.17706 8.23782 5.8114 8.23782 5.36875Z" stroke="#333333" stroke-miterlimit="10"/>
<path d="M8.23782 3.15552H4.5127" stroke="#333333" stroke-miterlimit="10"/>
<path d="M1 8.29407H11.7507" stroke="#333333" stroke-miterlimit="10"/>
<path d="M1 22.7283H11.7507" stroke="#333333" stroke-miterlimit="10"/>
</svg>
