<svg width="23" height="27" viewBox="0 0 23 27" fill="none" xmlns="http://www.w3.org/2000/svg">
<path d="M10.7058 26.1548C16.0662 26.1548 20.4117 21.8093 20.4117 16.4489C20.4117 11.0886 16.0662 6.7431 10.7058 6.7431C5.34545 6.7431 1 11.0886 1 16.4489C1 21.8093 5.34545 26.1548 10.7058 26.1548Z" stroke="#333333" stroke-miterlimit="10"/>
<path d="M10.706 20.9067C13.168 20.9067 15.1639 18.9109 15.1639 16.4488C15.1639 13.9868 13.168 11.9909 10.706 11.9909C8.24392 11.9909 6.24805 13.9868 6.24805 16.4488C6.24805 18.9109 8.24392 20.9067 10.706 20.9067Z" stroke="#333333" stroke-miterlimit="10"/>
<path d="M16.913 8.97196L20.1577 7.58944C22.2174 6.68658 22.3867 3.8369 20.4398 2.70831L18.1827 1.38222C17.3927 0.902571 16.4051 0.874357 15.5587 1.29758C13.5555 2.3133 13.5837 5.1912 15.5869 6.17871L15.8126 6.29157" stroke="#333333" stroke-miterlimit="10" stroke-linecap="round" stroke-linejoin="round"/>
</svg>
