<svg width="35" height="39" viewBox="0 0 35 39" fill="none" xmlns="http://www.w3.org/2000/svg">
<path d="M5.38059 27.5578L30.48 16.9345C30.882 16.7644 31.3547 16.9559 31.5248 17.3579L31.9613 18.3892C32.1314 18.7912 31.9399 19.2638 31.5379 19.434L6.43847 30.0572C6.03646 30.2274 5.56381 30.0358 5.39366 29.6338L4.95719 28.6026C4.78704 28.2006 4.97858 27.7279 5.38059 27.5578Z" fill="white" stroke="#333333" stroke-miterlimit="10"/>
<path d="M24.7294 19.3684L29.571 17.3192C29.973 17.149 30.1646 16.6764 29.9944 16.2744L29.1215 14.2119C28.9513 13.8099 28.4787 13.6183 28.0767 13.7885L23.2351 15.8377C22.8331 16.0078 22.6415 16.4805 22.8117 16.8825L23.6846 18.945C23.8548 19.347 24.3099 19.5459 24.7294 19.3684Z" stroke="#333333" stroke-miterlimit="10"/>
<path d="M24.3535 15.3642L25.1747 17.3043" stroke="#333333" stroke-miterlimit="10" stroke-linecap="round" stroke-linejoin="round"/>
<path d="M25.752 14.7724L26.5731 16.7125" stroke="#333333" stroke-miterlimit="10" stroke-linecap="round" stroke-linejoin="round"/>
<path d="M27.1504 14.1805L27.9715 16.1207" stroke="#333333" stroke-miterlimit="10" stroke-linecap="round" stroke-linejoin="round"/>
<path d="M4.27461 27.547L23.5468 8.27481C23.8555 7.96614 24.3654 7.96614 24.6741 8.27481L25.4659 9.06664C25.7746 9.37531 25.7746 9.8853 25.4659 10.194L6.19377 29.4662C5.8851 29.7748 5.37511 29.7748 5.06643 29.4662L4.27461 28.6743C3.96593 28.3657 3.96593 27.8557 4.27461 27.547Z" fill="white" stroke="#333333" stroke-miterlimit="10"/>
<path d="M19.1311 12.6902L22.8486 8.97262C23.1573 8.66394 23.1573 8.15396 22.8486 7.84528L21.265 6.26163C20.9563 5.95296 20.4463 5.95295 20.1377 6.26163L16.4201 9.97918C16.1114 10.2879 16.1114 10.7978 16.4201 11.1065L18.0038 12.6902C18.3124 12.9988 18.809 13.0123 19.1311 12.6902Z" stroke="#333333" stroke-miterlimit="10"/>
<path d="M17.2793 9.12024L18.769 10.6099" stroke="#333333" stroke-miterlimit="10" stroke-linecap="round" stroke-linejoin="round"/>
<path d="M18.3535 8.04663L19.8432 9.53633" stroke="#333333" stroke-miterlimit="10" stroke-linecap="round" stroke-linejoin="round"/>
<path d="M19.4268 6.9729L20.9165 8.4626" stroke="#333333" stroke-miterlimit="10" stroke-linecap="round" stroke-linejoin="round"/>
<path d="M3.83557 27.2734L14.6412 2.25198C14.8142 1.85122 15.2883 1.66313 15.689 1.8362L16.7171 2.28016C17.1178 2.45323 17.3059 2.92726 17.1328 3.32803L6.32726 28.3495C6.15419 28.7502 5.68016 28.9383 5.2794 28.7653L4.25136 28.3213C3.85059 28.1482 3.6625 27.6742 3.83557 27.2734Z" fill="white" stroke="#333333" stroke-miterlimit="10"/>
<path d="M12.1658 7.98453L14.2502 3.15797C14.4233 2.75721 14.2352 2.28317 13.8344 2.1101L11.7783 1.22218C11.3776 1.04911 10.9036 1.2372 10.7305 1.63796L8.64612 6.46452C8.47305 6.86529 8.66114 7.33932 9.0619 7.51239L11.118 8.40032C11.5187 8.57338 11.9853 8.40272 12.1658 7.98453Z" stroke="#333333" stroke-miterlimit="10"/>
<path d="M9.12793 5.3493L11.062 6.18455" stroke="#333333" stroke-miterlimit="10" stroke-linecap="round" stroke-linejoin="round"/>
<path d="M9.72949 3.95544L11.6636 4.7907" stroke="#333333" stroke-miterlimit="10" stroke-linecap="round" stroke-linejoin="round"/>
<path d="M10.3311 2.5614L12.2652 3.39665" stroke="#333333" stroke-miterlimit="10" stroke-linecap="round" stroke-linejoin="round"/>
</svg>
