<svg width="35" height="30" viewBox="0 0 35 30" fill="none" xmlns="http://www.w3.org/2000/svg">
<path d="M11.6969 12.6804L22.1689 1.3308C22.4417 1.05803 22.8923 1.05803 23.1651 1.3308L28.6324 6.79807C28.9051 7.07084 28.9051 7.5215 28.6324 7.79427L17.2116 18.1951C16.9388 18.4679 16.4882 18.4679 16.2154 18.1951L11.6969 13.6766C11.4241 13.4039 11.4241 12.9532 11.6969 12.6804Z" stroke="#333333" stroke-miterlimit="10"/>
<path d="M10.4986 18.4085L11.7913 19.7012C12.0641 19.974 12.5148 19.974 12.7875 19.7012L14.7444 17.7444C15.0171 17.4716 15.0171 17.0209 14.7444 16.7482L13.4517 15.4555C13.1789 15.1827 12.7282 15.1827 12.4555 15.4555L10.4986 17.4123C10.214 17.6732 10.214 18.1239 10.4986 18.4085Z" stroke="#333333" stroke-miterlimit="10"/>
<path d="M12.6338 11.6724L18.2315 17.2701" stroke="#333333" stroke-miterlimit="10"/>
<path d="M6.42451 21.663C6.42451 21.663 8.91876 22.8522 9.93181 20.4323C9.93181 20.4323 11.4903 23.5586 8.81186 24.612C6.27287 25.5986 3.53507 23.8927 3.08092 23.3195C2.69474 22.8167 2.34965 22.2901 2.41306 21.6647C2.44694 21.3438 2.57484 20.9961 2.84102 20.6507C2.999 20.45 3.1969 20.2946 3.40983 20.2128C4.19241 19.8842 5.0898 20.2288 5.53728 20.9564C5.73254 21.1998 5.98826 21.4767 6.42451 21.663Z" stroke="#333333" stroke-miterlimit="10" stroke-linejoin="round"/>
<circle cx="28" cy="8" r="6.5" fill="white" stroke="#333333"/>
<path d="M25.4118 11.1707C25.2602 11.1619 25.1209 11.0816 25.0442 10.9133C24.9693 10.7493 24.9896 10.5906 25.1051 10.4514C25.4903 9.98591 25.8782 9.52222 26.2652 9.05765C26.7359 8.49259 27.2066 7.92753 27.6774 7.36247C28.1463 6.80005 28.6153 6.23763 29.0843 5.67433C29.2253 5.50508 29.3646 5.33494 29.5074 5.16657C29.6344 5.01671 29.8336 4.96999 30.0143 5.04404C30.1889 5.11632 30.299 5.29527 30.2832 5.48745C30.2744 5.59323 30.2259 5.68227 30.158 5.76337C29.9076 6.06133 29.659 6.36016 29.4105 6.659C29.1292 6.99575 28.8489 7.33338 28.5677 7.67012C28.2001 8.11177 27.8334 8.55253 27.4658 8.9933C27.1819 9.33357 26.8981 9.67384 26.6142 10.0141C26.3374 10.3456 26.0624 10.677 25.7856 11.0085C25.6966 11.1143 25.5758 11.1707 25.4118 11.1707Z" fill="#43484D"/>
<path d="M30.293 9.83871C30.2913 10.5845 29.7024 11.1725 28.9593 11.1707C28.2355 11.1689 27.6458 10.5695 27.6484 9.83783C27.6511 9.11145 28.2497 8.52347 28.9857 8.52699C29.7059 8.53052 30.2948 9.13261 30.293 9.83871ZM29.4115 9.85282C29.4133 9.60687 29.2185 9.40853 28.9734 9.40764C28.7301 9.40676 28.5326 9.60158 28.53 9.844C28.5282 10.0891 28.7239 10.2883 28.969 10.2892C29.2123 10.2901 29.4097 10.0952 29.4115 9.85282Z" fill="#43484D"/>
<path d="M26.3298 7.6446C25.5964 7.64636 25.0058 7.05221 25.0049 6.31348C25.004 5.60121 25.6017 5.00088 26.3131 5C27.0544 4.99912 27.6477 5.58534 27.6495 6.32054C27.6512 7.04868 27.0589 7.64283 26.3298 7.6446ZM26.3281 6.76306C26.5687 6.76306 26.7671 6.56736 26.7679 6.32759C26.7688 6.08076 26.574 5.88241 26.3307 5.88153C26.0848 5.88065 25.8873 6.07635 25.8864 6.32142C25.8864 6.56648 26.083 6.76306 26.3281 6.76306Z" fill="#43484D"/>
</svg>
