<svg width="22" height="27" viewBox="0 0 22 27" fill="none" xmlns="http://www.w3.org/2000/svg">
<path d="M1 11.9797C1 10.8901 1.16763 9.82843 1.81021 8.90647C2.95567 7.1743 5.2466 6.67141 7.17434 7.73306C7.3699 7.84482 7.53753 7.95657 7.70516 8.06832C8.51537 8.54327 9.35351 8.57121 10.1637 8.06832C10.9739 7.56543 11.8121 7.20224 12.7899 7.20224C14.7735 7.20224 16.366 8.57121 16.7571 10.5828C17.0365 12.0914 16.813 13.5721 16.4498 15.0249C16.1704 16.1425 15.8631 17.232 15.6396 18.3496C15.3323 19.8024 15.1367 21.2551 14.8015 22.7079C14.6059 23.574 14.2706 24.4122 13.7957 25.1944C13.0134 26.4516 11.7003 26.0605 11.1136 25.2224C10.5828 24.4401 10.3872 23.5461 10.2196 22.6241C10.0799 21.8698 9.94022 21.1154 9.74465 20.3891C9.66083 20.0538 9.43733 19.7744 9.01826 19.7465C8.57125 19.7185 8.29186 19.9141 8.18011 20.3052C7.98454 21.0596 7.81691 21.8418 7.67722 22.5962C7.50959 23.5181 7.34197 24.4122 6.81114 25.1944C6.53176 25.5856 6.16856 25.8649 5.72155 25.9488C5.05104 26.0884 4.49227 25.837 4.21289 25.2503C3.82176 24.496 3.40268 23.7137 3.20712 22.9035C2.84392 21.5625 2.56454 20.1935 2.39691 18.8245C2.1734 17.6232 1.83815 16.4218 1.50289 15.2484C1.19557 14.1868 1.02794 13.0972 1 11.9797Z" stroke="#333333" stroke-miterlimit="10"/>
<path d="M18.6294 1C18.6294 1 18.5735 5.55392 21.3394 5.72155C21.3394 5.72155 18.5735 6.16856 18.6294 10.4431C18.6294 10.4431 18.2941 5.74949 15.8076 5.72155C15.8076 5.72155 18.6573 5.55392 18.6294 1Z" stroke="#333333" stroke-miterlimit="10" stroke-linecap="round" stroke-linejoin="round"/>
</svg>
