<svg width="55" height="63" viewBox="0 0 55 63" fill="none" xmlns="http://www.w3.org/2000/svg">
<path d="M51.5194 22.2148H50.0283V15.0184C50.0283 14.9735 50.021 14.9283 50.0151 14.8829C50.0128 14.5971 49.9218 14.3165 49.7262 14.0942L37.7522 0.416491C37.7486 0.412979 37.7449 0.411733 37.7425 0.407996C37.6713 0.328254 37.588 0.261878 37.5 0.204564C37.4739 0.187121 37.4477 0.172509 37.4203 0.157218C37.3442 0.115761 37.2633 0.081214 37.18 0.0561815C37.1575 0.0499517 37.1373 0.0410034 37.1148 0.0348869C37.0242 0.0133658 36.9303 0 36.8354 0H7.40746C6.06364 0 4.97206 1.09293 4.97206 2.43551V22.2141H3.4811C1.5587 22.2141 0 23.7719 0 25.6949V43.7967C0 45.7178 1.5587 47.2775 3.4811 47.2775H4.97206V59.6691C4.97206 61.0118 6.06364 62.1045 7.40746 62.1045H47.5928C48.9353 62.1045 50.0283 61.0118 50.0283 59.6691V47.2776H51.5194C53.4411 47.2776 55 45.7186 55 43.7968V25.6956C55.0001 23.772 53.4411 22.2148 51.5194 22.2148ZM7.40746 2.43551H35.6175V14.8958C35.6175 15.569 36.1632 16.1136 36.8352 16.1136H47.5928V22.2147H7.40746V2.43551ZM36.6289 33.7565C36.6289 39.2927 33.2723 42.6487 28.3367 42.6487C23.3269 42.6487 20.3958 38.8664 20.3958 34.0573C20.3958 28.9968 23.6272 25.2145 28.612 25.2145C33.7968 25.2145 36.6289 29.0966 36.6289 33.7565ZM3.73618 42.2983V25.7163C5.13891 25.4903 6.96719 25.3649 8.89695 25.3649C12.103 25.3649 14.1818 25.9414 15.8101 27.1683C17.5635 28.4712 18.6663 30.5506 18.6663 33.5311C18.6663 36.7626 17.4892 38.9918 15.8613 40.3695C14.0825 41.8476 11.3769 42.5485 8.06997 42.5485C6.08992 42.5487 4.68776 42.4234 3.73618 42.2983ZM47.5928 59.0089H7.40746V47.2776H47.5928V59.0089ZM47.7769 39.4683C48.9293 39.4683 50.2071 39.2165 50.9581 38.917L51.535 41.8977C50.8332 42.2497 49.2552 42.6236 47.2015 42.6236C41.365 42.6236 38.3587 38.9919 38.3587 34.1821C38.3587 28.4221 42.4666 25.2145 47.576 25.2145C49.5548 25.2145 51.0591 25.6153 51.7359 25.9664L50.9588 28.9968C50.1828 28.6715 49.1055 28.3703 47.7522 28.3703C44.7214 28.3703 42.3663 30.1993 42.3663 33.9563C42.3657 37.3383 44.37 39.4683 47.7769 39.4683Z" fill="#3272B1"/>
<path d="M14.6075 33.6565C14.6325 30.1487 12.578 28.2953 9.29741 28.2953C8.44563 28.2953 7.89333 28.3702 7.56836 28.4459V39.4932C7.89322 39.5685 8.42014 39.5685 8.89633 39.5685C12.3528 39.593 14.6075 37.6891 14.6075 33.6565Z" fill="#3272B1"/>
<path d="M24.4297 33.9812C24.4297 37.2889 25.9831 39.6181 28.5378 39.6181C31.1183 39.6181 32.5959 37.1624 32.5959 33.8814C32.5959 30.8494 31.1434 28.2454 28.5128 28.2454C25.9338 28.2461 24.4297 30.7008 24.4297 33.9812Z" fill="#3272B1"/>
</svg>
