<svg width="20" height="20" viewBox="0 0 20 20" fill="none" xmlns="http://www.w3.org/2000/svg">
<path d="M10.1344 18.9996C7.83017 18.9996 5.52905 18.9996 3.22478 18.9996C2.10728 18.9996 1.22271 18.2661 1.0244 17.1706C1.00236 17.0542 1.00236 16.9314 1.00236 16.8118C0.999213 12.1686 0.999213 7.52859 1.00236 2.88543C1.00236 1.77107 1.75786 0.889654 2.85648 0.707075C2.99499 0.68504 3.13979 0.68504 3.28145 0.68504C7.86165 0.68504 12.4482 0.697631 17.0315 0.678744C18.2718 0.672448 19.1406 1.5696 19.2854 2.50453C19.3074 2.63674 19.3106 2.7721 19.3106 2.90746C19.3106 7.52859 19.3137 12.1466 19.3106 16.7677C19.3106 17.8946 18.5897 18.7635 17.4848 18.9744C17.34 19.0027 17.1889 18.9996 17.041 18.9996C14.7398 18.9996 12.4356 18.9996 10.1344 18.9996ZM1.91525 9.8423C1.91525 12.1592 1.91211 14.476 1.91525 16.7929C1.91525 17.5075 2.43466 18.0772 3.11461 18.0804C5.3874 18.0898 7.66333 18.0835 9.93612 18.0867C10.0967 18.0867 10.1407 18.0237 10.1407 17.8726C10.1376 16.0091 10.1376 14.1455 10.1407 12.2819C10.1407 12.1025 10.0778 12.0458 9.90464 12.049C9.61504 12.0584 9.32228 12.049 9.03267 12.0521C8.88472 12.0521 8.81862 11.9955 8.81862 11.8381C8.82491 10.9441 8.82491 10.0532 8.81862 9.15921C8.81862 8.98607 8.89102 8.93885 9.04841 8.942C9.31599 8.9483 9.58671 8.94515 9.85742 8.942C10.1344 8.942 10.1376 8.942 10.1344 8.65869C10.1281 8.01966 10.1156 7.38379 10.3076 6.76365C10.6255 5.73114 11.2551 4.98508 12.3285 4.71751C13.5058 4.42475 14.6297 4.67344 15.7188 5.14562C15.8227 5.18969 15.8416 5.27469 15.8416 5.36913C15.8416 6.07111 15.8384 6.77309 15.8447 7.47193C15.8447 7.63877 15.7755 7.69228 15.6118 7.68913C15.2592 7.67969 14.9035 7.68913 14.5478 7.68599C14.3275 7.68284 14.1102 7.70487 13.8962 7.75524C13.7262 7.79616 13.6444 7.89689 13.6475 8.07318C13.6507 8.28409 13.6569 8.49815 13.6444 8.7122C13.6349 8.88849 13.6947 8.9483 13.8742 8.94515C14.4754 8.9357 15.0798 8.9483 15.6811 8.93885C15.8762 8.9357 15.9297 8.99551 15.8888 9.18754C15.7062 10.069 15.5268 10.9472 15.3568 11.8318C15.3253 11.9986 15.2529 12.0584 15.0892 12.0553C14.6989 12.049 14.3086 12.0647 13.9214 12.049C13.7073 12.0427 13.6412 12.1088 13.6412 12.326C13.6507 14.1549 13.6475 15.9807 13.6412 17.8097C13.6412 18.0206 13.6916 18.093 13.9119 18.0898C14.9539 18.0804 15.9958 18.0867 17.0378 18.0835C17.872 18.0835 18.3851 17.5641 18.3851 16.7268C18.3851 12.134 18.3851 7.54433 18.3851 2.95153C18.3851 2.11734 17.8688 1.60108 17.0315 1.60108C12.4387 1.59793 7.84906 1.60108 3.25626 1.60108C3.13035 1.60108 3.00128 1.59793 2.87537 1.63256C2.26467 1.78681 1.90266 2.26529 1.90266 2.93265C1.91525 5.23691 1.91525 7.53803 1.91525 9.8423ZM12.7409 14.6114C12.7409 13.5285 12.7441 12.4425 12.7378 11.3596C12.7378 11.1739 12.8007 11.1078 12.9833 11.1109C13.4429 11.1204 13.9056 11.1109 14.3652 11.1141C14.51 11.1172 14.5856 11.0668 14.6108 10.9157C14.658 10.6356 14.7146 10.3586 14.7776 10.0847C14.8185 9.91156 14.7839 9.8486 14.5919 9.85174C14.0473 9.86434 13.5027 9.85175 12.955 9.85804C12.8007 9.86119 12.7378 9.80767 12.7378 9.65028C12.7441 9.11828 12.7283 8.58629 12.7441 8.05744C12.7661 7.36175 13.1848 6.9116 13.8742 6.81087C14.148 6.76994 14.425 6.7668 14.6989 6.77309C14.8532 6.77624 14.9224 6.72587 14.913 6.56533C14.9035 6.40164 14.8972 6.23795 14.9161 6.0774C14.9413 5.8539 14.8406 5.76576 14.6359 5.7091C14.1197 5.56744 13.5971 5.50134 13.062 5.52023C12.2939 5.54541 11.7241 5.89168 11.3716 6.57792C11.1638 6.98085 11.0694 7.41841 11.0599 7.86856C11.0473 8.41945 11.0568 8.97348 11.0536 9.52436C11.0536 9.85804 11.0536 9.85804 10.7325 9.85804C10.4618 9.85804 10.1943 9.86434 9.92668 9.85489C9.78817 9.85175 9.73781 9.90526 9.74095 10.0406C9.74725 10.3302 9.74725 10.623 9.74095 10.9126C9.73781 11.0574 9.79132 11.1172 9.93927 11.1141C10.1943 11.1078 10.4492 11.1109 10.7042 11.1141C11.0568 11.1141 11.0568 11.1141 11.0568 11.4635C11.0568 13.582 11.0599 15.7006 11.0536 17.816C11.0536 18.0143 11.1008 18.0961 11.3149 18.0867C11.7052 18.0709 12.0956 18.0709 12.4828 18.0867C12.6905 18.093 12.7472 18.0174 12.7441 17.8191C12.7346 16.7488 12.7409 15.6785 12.7409 14.6114Z" fill="white" stroke="white" stroke-width="0.3" stroke-miterlimit="10"/>
</svg>
