<svg width="15" height="16" viewBox="0 0 15 16" fill="none" xmlns="http://www.w3.org/2000/svg">
<path d="M10.3603 14.993C10.3603 13.0468 10.3603 11.1214 10.3603 9.18211C11.0032 9.18211 11.6392 9.18211 12.2961 9.18211C12.3934 8.43489 12.4873 7.6981 12.5846 6.94045C11.8373 6.94045 11.104 6.94045 10.3533 6.94045C10.3533 6.71455 10.3499 6.5095 10.3533 6.30445C10.3603 5.91867 10.3533 5.52943 10.3846 5.14365C10.4228 4.69879 10.6905 4.44161 11.1457 4.41033C11.5906 4.37905 12.0354 4.38948 12.4803 4.38253C12.5359 4.38253 12.5915 4.38253 12.6576 4.38253C12.6576 3.70134 12.6576 3.03753 12.6576 2.35635C11.8061 2.31464 10.9615 2.18953 10.124 2.37025C8.99096 2.61701 8.31325 3.33295 8.09778 4.46246C8.02132 4.85519 8.02827 5.26877 8.01784 5.67192C8.00394 6.08897 8.01437 6.50255 8.01437 6.94045C7.35403 6.94045 6.7076 6.94045 6.05422 6.94045C6.05422 7.69462 6.05422 8.42794 6.05422 9.18211C6.70412 9.18211 7.35056 9.18211 8.00394 9.18211C8.00394 11.1284 8.00394 13.0538 8.00394 15.0035C7.93791 15.0035 7.87882 15.0035 7.81627 15.0035C5.52247 15.0035 3.22868 15 0.934893 15.0104C0.31279 15.0035 0 14.5447 0 14.0582C0.00695088 9.66867 0.00347544 5.27919 0.00695088 0.889713C0.00695088 0.361446 0.364921 0.00347544 0.886237 0.00347544C5.28614 0 9.68953 0 14.0894 0C14.4196 0 14.7046 0.111214 14.8645 0.403151C14.9479 0.55607 14.993 0.75417 14.993 0.931418C15.0035 2.46061 15 3.98981 15 5.519C15 8.14296 15 10.7669 15 13.3909C15 13.6411 15.0035 13.8879 14.9965 14.1381C14.9861 14.6177 14.6803 14.9791 14.2111 14.9861C12.9321 15.0035 11.6532 14.993 10.3603 14.993Z" fill="#736A6B"/>
</svg>
