<svg width="43" height="40" viewBox="0 0 43 40" fill="none" xmlns="http://www.w3.org/2000/svg">
<path d="M38.8758 15.2506H37.4218C36.9445 6.7594 29.9855 0 21.4999 0C13.0143 0 6.05514 6.7594 5.57786 15.2506H4.12407C1.8501 15.2506 0 17.1278 0 19.4351V26.5547C0 28.862 1.8501 30.7393 4.12407 30.7393H5.67583C6.40808 35.3234 10.3347 38.835 15.0559 38.835H17.3551C17.6866 39.5242 18.3818 40 19.1884 40H23.1005C24.2277 40 25.1416 39.0727 25.1416 37.9289V36.6345C25.1416 35.4908 24.2277 34.5635 23.1005 34.5635H19.1884C18.3818 34.5635 17.6866 35.0393 17.3551 35.7285H15.0559C11.5036 35.7285 8.61351 32.796 8.61351 29.1917C8.61351 29.1908 8.61334 29.1898 8.61334 29.1889C8.61334 29.1881 8.61351 29.187 8.61351 29.1862V16.1822C8.61351 8.97233 14.3943 3.10675 21.4999 3.10675C28.6055 3.10675 34.3863 8.97233 34.3863 16.1822V29.1862C34.3863 30.0441 35.0716 30.7395 35.9172 30.7395H38.8759C41.1499 30.7395 43 28.8622 43 26.5549V19.4353C42.9998 17.1278 41.1497 15.2506 38.8758 15.2506ZM5.55183 27.6327H4.12407C3.53827 27.6327 3.06167 27.1491 3.06167 26.5547V19.4351C3.06167 18.8407 3.53827 18.3571 4.12407 18.3571H5.55183V27.6327ZM39.9382 26.5547C39.9382 27.1491 39.4616 27.6327 38.8758 27.6327H37.4478V18.3571H38.8758C39.4616 18.3571 39.9382 18.8407 39.9382 19.4351V26.5547Z" fill="#333333"/>
</svg>
