<svg width="15" height="15" viewBox="0 0 15 15" fill="none" xmlns="http://www.w3.org/2000/svg">
<path d="M14.881 3.37604C14.6487 1.26855 13.1552 0.0239697 11.0477 0.0073753C9.86953 0.0073753 8.67473 0.0073753 7.47993 0.0073753C6.26854 0.0073753 5.04055 -0.00921912 3.82916 0.0073753C1.60551 0.0405641 0.0290402 1.60044 0.0124458 3.82409C-0.0041486 6.23028 -0.0041486 8.63647 0.0124458 11.0427C0.0290402 13.2663 1.6221 14.8428 3.84576 14.8594C6.25195 14.876 8.65814 14.876 11.0477 14.8594C13.0557 14.8428 14.4994 13.6148 14.8644 11.6401C14.9972 10.9265 14.964 10.2129 14.9474 9.49938C14.9308 7.45827 15.1134 5.40056 14.881 3.37604ZM7.51312 11.275C5.40563 11.2916 3.67981 9.56576 3.67981 7.42508C3.67981 5.30099 5.33925 3.60836 7.43015 3.59177C9.52105 3.57518 11.2801 5.33418 11.2801 7.42508C11.2801 9.48279 9.55424 11.2584 7.51312 11.275ZM11.8443 3.59177C11.363 3.59177 10.9814 3.2101 10.9814 2.72886C10.9814 2.24762 11.363 1.86595 11.8443 1.86595C12.3255 1.86595 12.7072 2.24762 12.7072 2.72886C12.7072 3.2101 12.3089 3.59177 11.8443 3.59177Z" fill="#736A6B"/>
<path d="M7.4647 4.50446C5.92142 4.50446 4.51089 5.89839 4.52749 7.40848C4.54408 9.03473 5.88823 10.3623 7.51448 10.3623C9.09095 10.3457 10.3853 9.01814 10.3687 7.40848C10.3687 5.81541 9.07436 4.52105 7.4647 4.50446Z" fill="#736A6B"/>
</svg>
