<svg width="20" height="19" viewBox="0 0 20 19" fill="none" xmlns="http://www.w3.org/2000/svg">
<path d="M19.4953 9.49558C19.4953 11.0855 19.5083 12.6722 19.492 14.2621C19.4757 15.8357 18.839 17.1122 17.5821 18.0655C16.779 18.676 15.8584 18.9894 14.8496 18.9927C11.6665 19.0024 8.48335 19.0024 5.30351 18.9927C3.56994 18.9894 2.21182 18.2548 1.24873 16.8118C0.762285 16.0805 0.510901 15.2578 0.507637 14.3796C0.497842 11.1279 0.494578 7.87301 0.507637 4.62135C0.510901 3.57338 0.866756 2.63314 1.5197 1.8039C2.04206 1.14442 2.68847 0.654715 3.46547 0.344567C4.01395 0.125831 4.58854 0.0050359 5.18272 0.0050359C8.39194 0.00177117 11.6012 -0.00475827 14.8104 0.00830061C16.224 0.0148301 17.4124 0.573097 18.3428 1.64066C19.1035 2.51234 19.4887 3.54073 19.4953 4.70297C19.4985 6.29942 19.4953 7.89913 19.4953 9.49558ZM1.83638 9.51517C1.83638 11.1084 1.82985 12.7048 1.83964 14.298C1.84944 16.1621 3.34794 17.6574 5.20883 17.6606C8.40173 17.6672 11.5946 17.6672 14.7908 17.6606C16.6615 17.6574 18.16 16.1556 18.1632 14.2817C18.1698 11.092 18.1698 7.90566 18.1632 4.71603C18.1567 2.83881 16.6517 1.34031 14.7745 1.33704C11.5914 1.33378 8.40826 1.33378 5.22516 1.34031C4.97051 1.34031 4.7126 1.36969 4.46774 1.42519C2.90721 1.79084 1.84291 3.12937 1.83964 4.73235C1.83311 6.32554 1.83638 7.92198 1.83638 9.51517Z" fill="white"/>
<path d="M9.99481 14.5331C7.2002 14.5331 4.96061 12.287 4.96387 9.48583C4.96387 6.70429 7.21653 4.45816 10.0013 4.46143C12.8057 4.46469 15.0421 6.72062 15.0355 9.54133C15.0257 12.2968 12.7666 14.5364 9.99481 14.5331ZM13.7035 9.49236C13.697 7.44538 12.0353 5.78364 9.99481 5.79344C7.94456 5.80323 6.28608 7.46497 6.29261 9.50216C6.29914 11.5524 7.96741 13.2109 10.0046 13.2011C12.0581 13.1913 13.7101 11.5361 13.7035 9.49236Z" fill="white"/>
<path d="M16.5373 4.11534C16.5405 4.75196 16.0312 5.27431 15.3979 5.28084C14.7515 5.28737 14.2258 4.77481 14.2193 4.13493C14.2128 3.49178 14.7286 2.96616 15.3685 2.96289C16.0182 2.96289 16.534 3.47219 16.5373 4.11534Z" fill="white"/>
</svg>
