<svg width="17" height="21" viewBox="0 0 17 21" fill="none" xmlns="http://www.w3.org/2000/svg">
<path d="M8.47607 2C12.038 2 14.9523 4.83333 14.9523 8.31429C14.9523 9.73095 14.4666 11.0262 13.657 12.0786" stroke="#7ECCC3" stroke-width="3" stroke-miterlimit="10" stroke-linecap="round" stroke-linejoin="round"/>
<path d="M8.47596 10.3381C9.59368 10.3381 10.4998 9.43206 10.4998 8.31434C10.4998 7.19662 9.59368 6.29053 8.47596 6.29053C7.35824 6.29053 6.45215 7.19662 6.45215 8.31434C6.45215 9.43206 7.35824 10.3381 8.47596 10.3381Z" stroke="#7ECCC3" stroke-width="3" stroke-miterlimit="10" stroke-linecap="round" stroke-linejoin="round"/>
<path d="M8.47607 19L13.657 12.119" stroke="#7ECCC3" stroke-width="3" stroke-miterlimit="10" stroke-linecap="round" stroke-linejoin="round"/>
<path d="M8.47619 2C4.91429 2 2 4.83333 2 8.31429C2 9.73095 2.48571 11.0262 3.29524 12.0786" stroke="#7ECCC3" stroke-width="3" stroke-miterlimit="10" stroke-linecap="round" stroke-linejoin="round"/>
<path d="M8.47636 19L3.29541 12.119" stroke="#7ECCC3" stroke-width="3" stroke-miterlimit="10" stroke-linecap="round" stroke-linejoin="round"/>
</svg>
