<svg width="12" height="13" viewBox="0 0 12 13" fill="none" xmlns="http://www.w3.org/2000/svg">
<path d="M0.867608 13C0.54818 12.9814 0.254751 12.8124 0.0931796 12.4577C-0.0646776 12.1123 -0.0219633 11.778 0.221323 11.4846C1.03289 10.504 1.85004 9.52715 2.66532 8.54844C3.65704 7.35801 4.64875 6.16758 5.64047 4.97715C6.62847 3.79229 7.61647 2.60744 8.60447 1.42072C8.90161 1.06415 9.19504 0.705722 9.4959 0.351008C9.76333 0.0352931 10.183 -0.0631355 10.5638 0.0928646C10.9315 0.24515 11.1636 0.62215 11.1302 1.02701C11.1116 1.24986 11.0095 1.43744 10.8665 1.60829C10.339 2.23601 9.81533 2.86558 9.29161 3.49515C8.69918 4.20458 8.10861 4.91587 7.51618 5.62529C6.74175 6.55572 5.96918 7.4843 5.19475 8.41287C4.59675 9.12972 3.99875 9.84658 3.40075 10.5634C2.81761 11.2617 2.23818 11.96 1.65504 12.6583C1.46747 12.8812 1.21304 13 0.867608 13Z" fill="white"/>
<path d="M11.1506 10.1939C11.1468 11.765 9.90626 13.0037 8.34069 13C6.81598 12.9963 5.57355 11.7335 5.57912 10.192C5.58469 8.66174 6.84569 7.42302 8.39641 7.43045C9.91369 7.43788 11.1543 8.70631 11.1506 10.1939ZM9.29341 10.2236C9.29712 9.70545 8.88669 9.2876 8.37041 9.28574C7.85784 9.28388 7.44184 9.69431 7.43626 10.205C7.43255 10.7213 7.84484 11.141 8.36112 11.1429C8.87369 11.1447 9.28969 10.7343 9.29341 10.2236Z" fill="white"/>
<path d="M2.79959 5.57143C1.25445 5.57515 0.01016 4.32343 0.00830283 2.76715C0.00644569 1.26657 1.26559 0.00185924 2.7643 2.09177e-06C4.32616 -0.00185505 5.57602 1.23315 5.57973 2.782C5.58345 4.316 4.33545 5.56772 2.79959 5.57143ZM2.79588 3.71429C3.30288 3.71429 3.72073 3.302 3.72259 2.79686C3.72445 2.27686 3.31402 1.859 2.80145 1.85715C2.2833 1.85529 1.8673 2.26757 1.86545 2.78386C1.86545 3.30015 2.27959 3.71429 2.79588 3.71429Z" fill="white"/>
</svg>
