<svg width="13" height="13" viewBox="0 0 13 13" fill="none" xmlns="http://www.w3.org/2000/svg">
<path d="M6.30834 11.1567C5.92601 11.1567 5.70299 11.1221 4.98613 11.5721C4.23742 12.0048 3.45684 12.4894 2.6444 12.9135C2.42935 13.026 2.07092 13.0346 1.88772 12.9048C1.72842 12.7923 1.64877 12.4115 1.6647 12.1606C1.71249 11.5721 1.80011 10.9922 1.93551 10.4211C2.05499 9.89317 2.0072 9.5297 1.56115 9.14891C0.661101 8.37004 0.207092 7.26232 0 6.03343C0 5.71323 0 5.40168 0 5.08148C0.0238952 5.01224 0.0557555 4.95167 0.0637206 4.88243C0.246917 3.57566 0.860228 2.52851 1.80011 1.74099C4.05422 -0.13696 6.57118 -0.439854 9.19966 0.564024C11.1033 1.29097 12.4733 2.64967 12.9034 4.91705C12.9193 5.0209 12.991 5.49687 12.999 5.76515C13.007 5.95554 12.9671 6.15459 12.8954 6.51806L6.30834 11.1567ZM3.09045 11.1221C3.86306 10.672 4.54009 10.2566 5.23305 9.88451C5.43218 9.78067 5.68706 9.72874 5.91008 9.74605C7.36769 9.83259 8.73768 9.55566 9.9643 8.67294C12.1627 7.09789 12.2662 4.38049 10.2033 2.66698C8.15623 0.962114 4.71532 0.988076 2.69219 2.72756C1.79214 3.49777 1.21069 4.45838 1.27441 5.7565C1.33813 7.04596 2.01516 7.94599 2.94708 8.63832C3.29754 8.89795 3.40109 9.20084 3.3294 9.63355C3.24975 10.0922 3.17806 10.5595 3.09045 11.1221ZM12.9034 6.51806C11.7803 9.91048 9.31117 10.9836 6.30834 11.1567L12.9034 6.51806Z" fill="white"/>
</svg>
