<svg width="18" height="15" viewBox="0 0 18 15" fill="none" xmlns="http://www.w3.org/2000/svg">
<path d="M5.01797 14C4.49348 13.883 4.05135 13.6316 3.72626 13.1938C3.57888 12.9944 3.46185 12.782 3.40983 12.5392C3.37515 12.3832 3.30147 12.3355 3.14976 12.3485C3.01538 12.3615 2.88101 12.3529 2.7423 12.3529C2.11812 12.3485 1.66299 11.8891 1.65865 11.2605C1.65432 9.85179 1.65432 8.44304 1.65865 7.0343C1.65865 6.87392 1.62398 6.73521 1.53728 6.59217C0.210896 4.41186 1.45926 1.55536 3.97766 1.07422C5.30839 0.822816 6.46139 1.21293 7.39333 2.20122C7.47569 2.28791 7.55804 2.32692 7.67508 2.32692C8.53766 2.32259 9.39591 2.32259 10.2585 2.32692C10.952 2.32692 11.3595 2.73437 11.3638 3.42358C11.3638 3.59263 11.3638 3.75734 11.3638 3.92639C11.3638 4.00008 11.3855 4.02609 11.4722 4.02175C12.4041 3.9524 13.3317 4.00008 14.2637 3.99141C14.7882 3.98707 15.1913 4.25148 15.5424 4.60692C15.9108 4.98403 16.1969 5.4305 16.5133 5.84662C16.7777 6.19772 17.0552 6.53582 17.2849 6.90859C17.4583 7.19468 17.5666 7.50677 17.6663 7.81886C17.6663 9.06723 17.6663 10.3113 17.6663 11.5596C17.6533 11.5856 17.6403 11.6073 17.6317 11.6333C17.4366 12.1144 17.0855 12.3485 16.5653 12.3485C16.431 12.3485 16.2923 12.3572 16.1579 12.3485C16.0322 12.3398 15.9802 12.3875 15.9455 12.5089C15.8371 12.9164 15.6204 13.2588 15.2953 13.5319C15.0179 13.7703 14.6928 13.9046 14.3417 13.9957C14.112 13.9957 13.8866 13.9957 13.6568 13.9957C13.6438 13.9913 13.6265 13.9827 13.6135 13.9783C12.7899 13.7833 12.2654 13.2805 12.0357 12.4699C12.0097 12.3789 11.9707 12.3442 11.8796 12.3485C11.5979 12.3702 11.3291 12.3268 11.0951 12.1535C11.0344 12.1101 10.9867 12.1405 10.9347 12.1751C10.744 12.3052 10.5359 12.3485 10.3062 12.3485C9.37424 12.3442 8.4423 12.3485 7.5147 12.3442C7.38466 12.3442 7.31964 12.3789 7.2893 12.5132C7.22428 12.7906 7.08557 13.0377 6.90785 13.2588C6.58709 13.6619 6.1623 13.8916 5.66382 13.9957C5.45143 14 5.2347 14 5.01797 14ZM2.38687 7.57179C2.34785 7.63681 2.36519 7.69749 2.36519 7.75384C2.36519 8.58175 2.36519 9.40966 2.36519 10.2419C2.36519 10.5757 2.36086 10.9138 2.36519 11.2475C2.36953 11.5076 2.51257 11.6506 2.76831 11.6506C2.89835 11.6506 3.02839 11.642 3.15842 11.655C3.31447 11.6723 3.37082 11.603 3.41417 11.4599C3.6439 10.645 4.40679 10.0295 5.20869 9.99483C6.12763 9.95582 6.91652 10.463 7.23728 11.3039C7.37166 11.655 7.37166 11.655 7.74877 11.655C8.60268 11.655 9.46093 11.655 10.3148 11.655C10.5533 11.655 10.6486 11.564 10.6616 11.3256C10.666 11.2649 10.6616 11.2085 10.6616 11.1478C10.6616 9.15392 10.6616 7.16 10.6616 5.16609C10.6616 4.58525 10.666 4.00875 10.6616 3.42791C10.6616 3.1505 10.5576 3.0378 10.2975 3.03346C9.57363 3.02913 8.84542 3.03346 8.12154 3.02913C8.00451 3.02913 7.9785 3.05947 8.03052 3.17217C8.39462 3.9784 8.45097 4.80631 8.22557 5.66023C7.61873 7.98358 4.84025 9.1019 2.79432 7.8362C2.65995 7.74951 2.52557 7.65848 2.38687 7.57179ZM7.64907 4.67628C7.64907 3.01612 6.33135 1.70707 4.6712 1.71141C3.02405 1.71574 1.71067 3.02913 1.70633 4.67628C1.70633 6.32776 3.02839 7.65415 4.67987 7.65415C6.33569 7.65415 7.6534 6.33209 7.64907 4.67628ZM11.3682 8.16996C11.3682 9.11924 11.3682 10.0642 11.3682 11.0135C11.3682 11.1262 11.3638 11.2432 11.3725 11.3559C11.3855 11.5163 11.5285 11.6376 11.7063 11.6506C12.001 11.6723 12.001 11.6723 12.0704 11.4426C12.3694 10.4283 13.4011 9.80411 14.4284 10.0382C15.2043 10.2159 15.7114 10.71 15.9412 11.4729C15.9845 11.616 16.0452 11.668 16.1882 11.655C16.3053 11.6463 16.4266 11.655 16.5437 11.6506C16.8558 11.6506 16.9728 11.5336 16.9728 11.2172C16.9728 10.4586 16.9728 9.70008 16.9728 8.94152C16.9728 8.69878 16.9728 8.69878 16.7301 8.69878C15.7548 8.69878 14.7795 8.70312 13.8042 8.69878C13.154 8.69445 12.6685 8.27399 12.6512 7.68449C12.6382 7.23369 12.6382 6.78289 12.6512 6.33643C12.6642 5.81628 13.05 5.40015 13.5658 5.33947C14.0296 5.28745 14.4977 5.3308 14.9615 5.3178C15.0136 5.3178 15.0699 5.3178 15.1219 5.31346C15.1869 5.30913 15.1999 5.27445 15.1609 5.2311C14.9095 4.96669 14.6668 4.69795 14.255 4.70228C13.4314 4.70662 12.6079 4.70228 11.7843 4.70228C11.4765 4.70228 11.3638 4.81498 11.3638 5.12274C11.3682 6.14137 11.3682 7.15567 11.3682 8.16996ZM15.2606 7.98358C15.7764 7.98358 16.2879 7.97924 16.8037 7.98791C16.9338 7.98791 16.9685 7.94456 16.9295 7.82753C16.8818 7.68882 16.8298 7.55445 16.7604 7.42441C16.509 6.94761 16.1406 6.54882 15.8328 6.11536C15.7808 6.04167 15.7071 6.04167 15.6291 6.04167C15.0049 6.04167 14.385 6.04167 13.7609 6.04167C13.4704 6.04167 13.3534 6.16304 13.3534 6.46213C13.3534 6.83057 13.3534 7.19901 13.3534 7.56745C13.3534 7.85354 13.4834 7.98791 13.7695 7.98791C14.2637 7.98791 14.7621 7.98358 15.2606 7.98358ZM12.6989 12.0017C12.6989 12.73 13.2797 13.3108 14.0079 13.3108C14.7231 13.3108 15.317 12.7256 15.317 12.0148C15.3213 11.2952 14.7318 10.697 14.0123 10.6927C13.2884 10.6927 12.6989 11.2779 12.6989 12.0017ZM4.04702 12.0061C4.04702 12.73 4.62352 13.3108 5.33873 13.3151C6.06694 13.3195 6.67378 12.717 6.66945 12.0017C6.66512 11.2952 6.06694 10.7014 5.35607 10.7014C4.62785 10.6927 4.04702 11.2779 4.04702 12.0061Z" fill="white" stroke="white" stroke-width="0.5" stroke-miterlimit="10"/>
<path d="M5.03101 3.28484C5.03101 3.56226 5.03101 3.83534 5.03101 4.11275C5.03101 4.20378 5.05268 4.27747 5.10903 4.35116C5.35177 4.67625 5.20006 5.11405 4.79694 5.20074C4.64956 5.23108 4.5412 5.30043 4.44583 5.40446C4.29412 5.56484 4.13374 5.72089 3.97336 5.87694C3.80865 6.03732 3.59192 6.05899 3.44888 5.92462C3.30584 5.79458 3.31017 5.55618 3.47488 5.38713C3.6526 5.1964 3.83899 5.01869 4.02538 4.83663C4.0904 4.77595 4.13374 4.70659 4.14675 4.61557C4.15542 4.55055 4.16842 4.47686 4.20743 4.43351C4.34614 4.2818 4.3288 4.09541 4.3288 3.91336C4.3288 3.41922 4.3288 2.92941 4.3288 2.43526C4.3288 2.26188 4.37648 2.11017 4.54987 2.03648C4.7926 1.93245 5.02234 2.1015 5.02667 2.39192C5.03534 2.691 5.03101 2.98576 5.03101 3.28484Z" fill="white" stroke="white" stroke-width="0.5" stroke-miterlimit="10"/>
</svg>
