<svg width="16" height="13" viewBox="0 0 16 13" fill="none" xmlns="http://www.w3.org/2000/svg">
<path d="M6.18607 8.62943C6.28825 8.90089 6.38046 9.1574 6.48263 9.40894C6.49509 9.44131 6.5549 9.47618 6.59228 9.47618C7.30752 9.48116 8.02026 9.47867 8.73549 9.47867C9.85693 9.47867 10.9784 9.47867 12.0998 9.47867C12.3989 9.47867 12.6979 9.4712 12.997 9.48365C13.7994 9.51354 14.4499 10.0639 14.6243 10.8484C14.8013 11.6454 14.4274 12.4448 13.7022 12.8134C12.5858 13.3837 11.2101 12.5494 11.2027 11.2967C11.2027 11.095 11.2351 10.8957 11.2525 10.689C10.1012 10.689 8.93237 10.689 7.74862 10.689C7.9131 11.2593 7.83833 11.7898 7.5019 12.2705C7.25768 12.6191 6.91626 12.8408 6.50257 12.9479C5.71507 13.1521 4.88021 12.7412 4.52135 11.9791C4.17993 11.2469 4.35936 10.2059 5.29889 9.66795C5.20917 9.42886 5.12195 9.18978 5.03223 8.9507C4.46403 7.44646 3.89334 5.94223 3.32514 4.43799C2.93139 3.39449 2.53515 2.35099 2.14389 1.30749C2.11647 1.23278 2.07909 1.20787 2.00184 1.20787C1.53582 1.21036 1.07228 1.21285 0.606262 1.20787C0.357052 1.20289 0.167653 1.08584 0.0629845 0.859207C-0.0441757 0.627595 -0.0142705 0.405944 0.150208 0.206708C0.269829 0.0622614 0.426831 0 0.611246 0C1.23427 0 1.8573 0 2.48032 0C2.77937 0 2.98372 0.144446 3.08839 0.420887C3.28278 0.933921 3.47467 1.44446 3.66905 1.9575C3.73883 2.14179 3.73883 2.14179 3.9382 2.14179C7.35736 2.14179 10.774 2.14179 14.1932 2.14179C14.5795 2.14179 14.9657 2.14428 15.352 2.14179C15.823 2.1393 16.1021 2.50789 15.9651 2.96364C15.7557 3.65101 15.5439 4.33588 15.3321 5.02076C15.0081 6.07422 14.6841 7.13017 14.3602 8.18363C14.2704 8.47502 14.0586 8.62943 13.7321 8.62943C12.9895 8.63192 12.2444 8.62943 11.5017 8.62943C9.78217 8.62943 8.06262 8.62943 6.34307 8.62943C6.29572 8.62943 6.24837 8.62943 6.18607 8.62943ZM7.63398 5.18264C7.63398 5.13283 7.63647 5.10045 7.63398 5.06808C7.59162 4.53512 7.54676 4.00216 7.50689 3.4692C7.49941 3.37706 7.47947 3.34219 7.3773 3.34219C6.34806 3.34717 5.31882 3.34468 4.29208 3.34468C4.26217 3.34468 4.23227 3.35215 4.19738 3.35464C4.4117 3.92994 4.62602 4.49029 4.83286 5.05313C4.86775 5.14777 4.9151 5.18513 5.01977 5.18513C5.64279 5.18015 6.26333 5.18264 6.88635 5.18264C7.12809 5.18264 7.37231 5.18264 7.63398 5.18264ZM14.5969 3.35215C13.5652 3.35215 12.5484 3.35215 11.5266 3.35215C11.4793 3.96231 11.4344 4.565 11.3871 5.17267C11.4319 5.17766 11.4544 5.18015 11.4793 5.18015C12.3042 5.18015 13.1316 5.18015 13.9564 5.18264C14.0312 5.18264 14.0462 5.14528 14.0611 5.09049C14.1583 4.76922 14.258 4.44795 14.3577 4.12917C14.4374 3.87515 14.5147 3.61863 14.5969 3.35215ZM10.9285 3.35215C9.97905 3.35215 9.047 3.35215 8.09751 3.35215C8.14486 3.96729 8.19221 4.57248 8.23707 5.17517C9.09435 5.17517 9.93419 5.17517 10.7865 5.17517C10.8338 4.56749 10.8812 3.9648 10.9285 3.35215ZM10.7391 5.79778C9.91176 5.79778 9.10432 5.79778 8.28691 5.79778C8.32928 6.34319 8.36915 6.87864 8.41152 7.42156C9.15167 7.42156 9.87438 7.42156 10.6145 7.42156C10.6544 6.87864 10.6968 6.34319 10.7391 5.79778ZM13.8443 5.80525C13.8244 5.79529 13.8169 5.78782 13.8094 5.78782C13.0119 5.78782 12.2145 5.78782 11.4195 5.78533C11.3422 5.78533 11.3323 5.82517 11.3273 5.88494C11.3024 6.20621 11.2749 6.52997 11.25 6.85124C11.2351 7.04052 11.2276 7.2273 11.2151 7.42156C11.3198 7.42156 11.4095 7.42156 11.5017 7.42156C12.0824 7.42156 12.663 7.42405 13.2462 7.42405C13.2985 7.42405 13.3434 7.42903 13.3658 7.35182C13.5228 6.83879 13.6848 6.32576 13.8443 5.80525ZM7.68382 5.79778C6.82654 5.79778 5.97923 5.79778 5.12444 5.79778C5.13441 5.83763 5.14188 5.86502 5.15185 5.89242C5.33128 6.36809 5.51321 6.84377 5.69015 7.32194C5.72254 7.4091 5.7674 7.42903 5.85462 7.42903C6.41535 7.42654 6.97607 7.42654 7.5343 7.42654C7.62401 7.42654 7.71373 7.42654 7.81092 7.42654C7.76856 6.87117 7.72619 6.33572 7.68382 5.79778ZM6.64213 11.2394C6.64462 10.9331 6.3979 10.6841 6.09386 10.6816C5.7998 10.6791 5.55059 10.9381 5.55059 11.2469C5.55308 11.5457 5.79731 11.7848 6.10134 11.7898C6.3979 11.7898 6.63963 11.5457 6.64213 11.2394ZM13.478 11.232C13.4755 10.9281 13.2213 10.6741 12.9222 10.6816C12.6257 10.689 12.3889 10.9356 12.3889 11.2394C12.3889 11.5457 12.6381 11.7923 12.9446 11.7873C13.2387 11.7848 13.4804 11.5333 13.478 11.232Z" fill="white"/>
</svg>
