<svg width="28" height="20" viewBox="0 0 28 20" fill="none" xmlns="http://www.w3.org/2000/svg">
<path d="M0 15.2977C0 11.4586 0 7.6226 0 3.78349C0.00932785 3.74004 0.0217657 3.69659 0.0279843 3.65004C0.323366 1.51479 2.03036 0.0188697 4.19132 0.00645541C5.68377 0.000248285 7.17623 0.00335185 8.66868 0.00335185C11.7935 0.00335185 14.9183 0.00335185 18.0432 0.00335185C19.8372 0.00335185 21.6282 -0.00595884 23.4222 0.00645541C24.6815 0.0157661 25.7387 0.506129 26.5657 1.45892C27.3026 2.3093 27.5731 3.31485 27.5669 4.42903C27.5514 7.54811 27.5638 10.6672 27.5576 13.7863C27.5576 14.4225 27.6042 15.0587 27.4861 15.6888C27.1409 17.5602 25.465 19.0127 23.5653 19.0437C22.1754 19.0654 20.7887 19.0499 19.3988 19.0499C14.6354 19.0499 9.87509 19.053 5.11166 19.0499C4.63905 19.0499 4.16333 19.0747 3.70005 19.0158C1.97129 18.7923 0.811524 17.8395 0.214541 16.2102C0.108826 15.9184 0.0715135 15.6019 0 15.2977ZM25.1665 12.7031C25.1541 12.6224 25.1448 12.5697 25.1355 12.5138C24.9427 11.589 24.7499 10.661 24.5571 9.73612C24.2648 8.33952 23.9757 6.94292 23.6865 5.54631C23.6648 5.44079 23.6337 5.39114 23.5093 5.39114C22.9403 5.40045 22.3682 5.39734 21.7992 5.39114C21.6779 5.39114 21.6189 5.42527 21.5691 5.537C20.6083 7.73433 19.6382 9.92854 18.6744 12.1259C18.5935 12.309 18.5158 12.4921 18.4349 12.6783C18.466 12.6876 18.4785 12.6969 18.494 12.6969C19.091 12.6969 19.6849 12.7 20.2819 12.6938C20.3254 12.6938 20.3907 12.6411 20.4093 12.5945C20.5213 12.3338 20.6239 12.0669 20.7203 11.8C20.7576 11.7007 20.8073 11.6696 20.913 11.6696C21.5878 11.6727 22.2594 11.6696 22.9341 11.6696C23.0149 11.6696 23.0989 11.6696 23.189 11.6696C23.2481 11.9676 23.3072 12.2531 23.3538 12.5355C23.3725 12.6504 23.4098 12.7031 23.5404 12.7C23.9664 12.6907 24.3892 12.6969 24.8152 12.6969C24.9271 12.7031 25.0391 12.7031 25.1665 12.7031ZM18.749 5.62701C17.5301 5.19561 16.3268 5.0963 15.1298 5.6208C14.7629 5.77908 14.452 6.02116 14.2219 6.35324C13.5129 7.37121 13.8177 8.73988 14.9059 9.38852C15.2355 9.58405 15.5868 9.73923 15.9164 9.93165C16.0812 10.0279 16.2398 10.1427 16.3673 10.2792C16.6378 10.5772 16.5818 10.9713 16.2429 11.1855C16.1154 11.2662 15.9631 11.3251 15.8138 11.3562C15.1204 11.4958 14.4426 11.3872 13.7835 11.1607C13.6529 11.1172 13.5254 11.0582 13.3855 11.0024C13.2891 11.4493 13.202 11.8869 13.0932 12.3152C13.0528 12.4766 13.0994 12.5417 13.2455 12.6007C13.8581 12.8397 14.4955 12.9514 15.1453 12.9328C16.3051 12.9018 17.2938 12.4673 18.037 11.5579C18.6339 10.8286 18.7739 9.64612 17.6887 8.88264C17.3716 8.65919 17.0202 8.48849 16.6875 8.29297C16.4606 8.15951 16.2211 8.04158 16.0159 7.88019C15.7143 7.63811 15.733 7.23155 16.0532 7.0112C16.2056 6.90567 16.3953 6.8374 16.5787 6.80015C17.1695 6.67291 17.7167 6.81877 18.2328 7.11672C18.3012 7.15706 18.3696 7.19741 18.4567 7.24396C18.5531 6.68842 18.6495 6.16703 18.749 5.62701ZM3.71249 6.80015C3.69383 6.80946 3.67518 6.82188 3.65963 6.83119C3.73736 7.12292 3.81509 7.41776 3.89283 7.7095C4.31569 9.32025 4.73855 10.9279 5.1583 12.5386C5.1894 12.6597 5.23603 12.7031 5.36662 12.7031C5.98226 12.6969 6.60101 12.7 7.21665 12.7031C7.31925 12.7031 7.37211 12.6752 7.40943 12.5759C8.32045 10.3072 9.23768 8.04158 10.1518 5.77287C10.1985 5.65494 10.242 5.5339 10.2948 5.40355C10.2327 5.40045 10.186 5.39734 10.1394 5.39734C9.54861 5.39734 8.95785 5.40045 8.36708 5.39114C8.24582 5.38803 8.20229 5.43148 8.16498 5.54321C7.62396 7.17258 7.07362 8.79885 6.5295 10.4251C6.51395 10.4748 6.49218 10.5213 6.46731 10.5834C6.06621 8.91368 5.04326 7.74364 3.71249 6.80015ZM11.0628 5.40355C10.6773 7.83054 10.2917 10.2575 9.90618 12.7C10.5498 12.7 11.1654 12.7031 11.7811 12.6938C11.8122 12.6938 11.865 12.6286 11.8744 12.5852C11.9241 12.3276 11.9614 12.0669 12.0049 11.8062C12.291 10.062 12.5739 8.31779 12.86 6.57049C12.9222 6.18565 12.9844 5.7977 13.0497 5.40045C12.3812 5.40355 11.7282 5.40355 11.0628 5.40355ZM1.60439 5.42838C1.60439 5.43769 1.60439 5.4501 1.60128 5.45941C1.63548 5.47183 1.66658 5.48735 1.70078 5.49976C2.54651 5.81012 3.34559 6.21048 4.07938 6.73498C4.98418 7.38052 5.73352 8.15951 6.14394 9.21783C6.15016 9.23335 6.1626 9.24576 6.17815 9.26749C6.17815 9.23645 6.18126 9.22093 6.17815 9.20541C5.98848 8.25883 5.79882 7.30914 5.60604 6.36255C5.48789 5.78839 5.04637 5.42838 4.46182 5.42838C4.21308 5.42838 3.96434 5.42838 3.71559 5.42838C3.0129 5.42838 2.30709 5.42838 1.60439 5.42838Z" fill="white"/>
<path d="M22.3745 7.58221C22.5548 8.47913 22.7382 9.37606 22.9217 10.2854C22.3776 10.2854 21.8521 10.2854 21.3018 10.2854C21.65 9.37296 21.992 8.47603 22.334 7.5791C22.3496 7.5791 22.362 7.5791 22.3745 7.58221Z" fill="white"/>
</svg>
