<svg width="19" height="20" viewBox="0 0 19 20" fill="none" xmlns="http://www.w3.org/2000/svg">
<path d="M9.17873 19.0559C6.81256 19.0559 4.4464 19.0559 2.08023 19.0559C0.842737 19.0559 0.0125579 18.2304 0.0125579 16.9983C0.00944861 14.0002 0.0281036 10.9991 0.000119998 8.00104C-0.00920786 6.84962 0.52559 6.08924 1.49569 5.57716C4.0111 4.25504 6.53273 2.94223 9.05125 1.62632C9.89076 1.18872 10.7334 0.751119 11.5729 0.310413C11.9304 0.121096 12.3067 -0.00304668 12.714 5.68856e-05C13.2737 0.00316045 13.6063 0.307309 13.6779 0.85664C13.6841 0.896986 13.6841 0.937332 13.6841 0.974575C13.6841 4.31711 13.7121 7.66275 13.6592 11.0053C13.6437 11.9364 13.0374 12.6253 12.1699 12.9543C9.42747 13.994 6.66643 14.9934 3.91471 16.0113C3.64109 16.1137 3.36748 16.2193 3.10008 16.3341C2.68343 16.5141 2.51242 16.8058 2.61503 17.1317C2.70831 17.4297 3.0068 17.5538 3.45765 17.4421C4.33446 17.2248 5.20506 16.9921 6.07877 16.7655C8.53511 16.1262 10.9883 15.4806 13.4447 14.8537C13.9764 14.7171 14.4614 14.4999 14.8781 14.1585C15.2729 13.8357 15.3786 13.3578 15.3818 12.8643C15.388 11.8557 15.3849 10.847 15.3849 9.83835C15.3849 8.8421 15.3911 7.84896 15.3786 6.85272C15.3755 6.60133 15.4346 6.4896 15.7082 6.50823C16.0658 6.53305 16.4296 6.49891 16.784 6.53616C17.6142 6.62306 18.0899 7.16928 18.0899 7.99483C18.0899 11.1915 18.0868 14.3913 18.0868 17.5879C18.0868 18.3949 17.6111 18.9287 16.7996 19.0249C16.5633 19.0528 16.3208 19.0497 16.0813 19.0528C13.7805 19.059 11.4796 19.0559 9.17873 19.0559ZM8.30502 7.26239C8.28015 7.84586 8.6315 8.15932 9.20361 8.06932C9.97782 7.94828 10.7427 7.10411 10.7769 6.33132C10.8018 5.75716 10.4411 5.42819 9.87521 5.51509C9.10722 5.63612 8.33922 6.49271 8.30502 7.26239Z" fill="white"/>
</svg>
