<svg width="21" height="20" viewBox="0 0 21 20" fill="none" xmlns="http://www.w3.org/2000/svg">
<path d="M0.143481 8.46901C0.917693 8.91282 1.63283 9.31629 2.34485 9.72596C3.41134 10.3374 4.49959 10.9177 5.53187 11.5788C6.01692 11.8891 6.35583 11.8364 6.82222 11.5633C10.6715 9.31629 14.5395 7.10034 18.4012 4.87199C18.5815 4.76647 18.7712 4.67646 18.9547 4.57715C20.6306 7.55967 20.5311 12.0598 17.8167 15.3869C15.0805 18.7356 10.4601 19.9491 6.446 18.3663C2.46301 16.7959 -0.142574 12.7519 0.143481 8.46901Z" fill="white"/>
<path d="M0.610083 6.21612C1.44026 6.69096 2.27044 7.1596 3.09751 7.63444C3.91525 8.10308 4.74232 8.54999 5.53519 9.05587C5.97671 9.3383 6.31873 9.3383 6.7789 9.06829C10.2426 7.04477 13.725 5.04918 17.2043 3.04428C17.3847 2.93875 17.5712 2.84565 17.7951 2.72461C17.9941 2.9791 18.1775 3.21497 18.389 3.48188C18.2459 3.5843 18.134 3.68051 18.0065 3.75189C14.2132 5.9399 10.4168 8.1217 6.63277 10.319C6.29696 10.5145 6.042 10.527 5.7062 10.3283C4.11736 9.39106 2.51607 8.47551 0.921012 7.55685C0.208986 7.14718 0.19033 7.08201 0.610083 6.21612Z" fill="white"/>
<path d="M1.4461 4.16444C2.85772 4.97757 4.28177 5.77519 5.68095 6.61315C6.04784 6.8335 6.30591 6.81178 6.66659 6.60074C9.57066 4.90619 12.4872 3.23647 15.4006 1.56055C16.2214 1.08881 16.2214 1.08571 16.9334 1.81504C16.7718 1.92056 16.6194 2.02919 16.4608 2.1223C13.165 4.02168 9.86915 5.91485 6.57953 7.82664C6.27171 8.00355 6.05717 8.00665 5.75246 7.82354C4.41547 7.02903 3.05982 6.26245 1.71039 5.48966C0.861555 5.0024 0.861555 5.0024 1.4461 4.16444Z" fill="white"/>
<path d="M15.0216 0.421647C13.7374 1.1634 12.4751 1.89274 11.2127 2.62207C9.68292 3.50348 8.14382 4.37248 6.62338 5.27562C6.27514 5.48356 6.02329 5.46494 5.6906 5.26631C4.50596 4.55559 3.30267 3.87591 2.05273 3.15589C2.27038 2.88277 2.46938 2.63759 2.69014 2.36137C3.70376 2.94174 4.70185 3.47866 5.65951 4.07764C6.04817 4.31972 6.32178 4.28248 6.6949 4.06213C8.84652 2.79898 11.0417 1.601 13.1684 0.297504C13.8618 -0.130787 14.3842 -0.102855 15.0216 0.421647Z" fill="white"/>
</svg>
