<svg width="55" height="64" viewBox="0 0 55 64" fill="none" xmlns="http://www.w3.org/2000/svg">
<path d="M14.5331 32.3537C14.5331 30.6569 13.3718 29.6365 11.3197 29.6365C10.4854 29.6365 9.92162 29.7168 9.61719 29.797V35.2543C9.96672 35.3345 10.3952 35.3575 10.9928 35.3575C13.1801 35.3689 14.5331 34.2454 14.5331 32.3537Z" fill="#3272B1"/>
<path d="M27.2178 29.6938C26.3045 29.6938 25.707 29.7741 25.3574 29.8543V41.9612C25.707 42.0414 26.2707 42.0414 26.7894 42.0414C30.5102 42.0644 32.9456 39.9892 32.9456 35.5638C32.9569 31.7231 30.7469 29.6938 27.2178 29.6938Z" fill="#3272B1"/>
<path d="M51.516 22.5857H50.0277V15.2711C50.0277 15.2253 50.0164 15.1794 50.0164 15.1335C50.0164 14.8469 49.9262 14.5603 49.7233 14.331L37.7491 0.424198C37.7491 0.424198 37.7378 0.424198 37.7378 0.412733C37.6702 0.332479 37.58 0.263691 37.4898 0.206366C37.4672 0.183437 37.4334 0.171972 37.4108 0.160507C37.3319 0.114648 37.253 0.0802536 37.174 0.057324C37.1515 0.0458592 37.1289 0.0458592 37.1064 0.0343944C37.0162 0.0114648 36.926 0 36.8245 0H7.39647C6.06601 0 4.97232 1.11209 4.97232 2.4764V22.5857H3.48401C1.55597 22.5857 0 24.1678 0 26.1283V44.5293C0 46.4783 1.55597 48.0719 3.48401 48.0719H4.97232V60.6718C4.97232 62.0361 6.06601 63.1482 7.40775 63.1482H47.5923C48.934 63.1482 50.0277 62.0361 50.0277 60.6718V48.0719H51.516C53.4328 48.0719 55 46.4898 55 44.5293V26.1283C55 24.1678 53.444 22.5857 51.516 22.5857ZM7.40775 2.4764H35.6181V15.145C35.6181 15.8329 36.1593 16.3832 36.8358 16.3832H47.5923V22.5857H7.40775V2.4764ZM37.3093 35.4263C37.3093 38.9689 36.0465 41.4109 34.2876 42.9128C32.3708 44.5293 29.4619 45.2974 25.8989 45.2974C23.7679 45.2974 22.2571 45.1599 21.231 45.0223V26.8735C22.7419 26.6327 24.715 26.4952 26.7897 26.4952C30.2399 26.4952 32.4836 27.1257 34.2312 28.4671C36.1142 29.8888 37.3093 32.1588 37.3093 35.4263ZM5.54736 45.114V26.8735C6.81017 26.6557 8.59164 26.4952 11.106 26.4952C13.6429 26.4952 15.4469 26.9882 16.6646 27.9741C17.826 28.9028 18.6039 30.4391 18.6039 32.2505C18.6039 34.0619 18.0064 35.5982 16.9352 36.6415C15.5371 37.9829 13.4512 38.5905 11.0271 38.5905C10.4859 38.5905 10.001 38.5676 9.62895 38.5103V45.1255L5.54736 45.114ZM47.5923 60.0068H7.40775V48.0719H47.5923V60.0068ZM51.1214 30.0493H44.1308V34.2798H50.6591V37.6848H44.1308V45.114H40.0041V26.6213H51.1214V30.0493Z" fill="#3272B1"/>
</svg>
