<svg width="49" height="54" viewBox="0 0 49 54" fill="none" xmlns="http://www.w3.org/2000/svg">
<path d="M47.1796 27.2647C47.1796 34.0956 47.1796 40.9265 47.1796 47.7575C47.1796 48.7626 47.1796 49.7775 46.799 50.7338C46.3209 51.9341 45.4134 52.344 44.3204 51.6901C43.3933 51.1437 42.5639 50.4118 41.7344 49.7189C41.2074 49.2896 40.7488 48.7724 40.2511 48.3039C39.4412 47.5428 38.6019 47.5525 37.8017 48.3137C36.7478 49.3188 35.7232 50.3532 34.4546 51.1339C32.7176 52.1878 31.0586 52.2073 29.3216 51.1437C28.0921 50.3923 27.0967 49.4164 26.0721 48.4308C25.106 47.494 24.3546 47.5233 23.3592 48.4113C22.3248 49.3383 21.2807 50.2752 20.1487 51.0851C18.4605 52.2854 16.6552 52.2854 14.9669 51.0851C13.8252 50.2654 12.7713 49.3188 11.7174 48.382C10.7903 47.5525 10.0292 47.5233 9.11186 48.3527C8.21409 49.1725 7.32607 50.0214 6.37949 50.7826C5.87205 51.1925 5.27679 51.534 4.67176 51.7975C3.77398 52.1976 3.03234 51.9048 2.51514 51.0558C2.07601 50.3435 1.91988 49.553 1.86133 48.7333C1.83205 48.343 1.83205 47.9526 1.83205 47.5623C1.84181 33.8614 1.87108 20.1508 1.81253 6.44014C1.80278 3.6785 3.9106 1.99028 6.28191 2.00004C18.5776 2.03908 30.8732 2.01956 43.1689 2.01956C45.5792 2.01956 47.0723 3.43454 47.1699 5.84488C47.2089 6.70362 47.1796 7.57213 47.1796 8.43087C47.1796 14.7056 47.1796 20.9803 47.1796 27.2647ZM18.3239 22.8734C18.519 22.8539 18.8118 22.8344 19.1045 22.8148C22.6956 22.4928 25.145 19.2237 24.4522 15.6619C23.9057 12.8807 22.0321 11.1047 19.0753 10.7729C14.2155 10.2362 11.4149 14.0517 12.1467 18.0137C12.6737 20.9315 15.0645 22.8148 18.3239 22.8734ZM36.4844 13.0076C35.3036 13.0076 34.1814 13.0173 33.0591 12.9978C32.6981 12.9881 32.4639 13.1344 32.2297 13.3979C26.316 19.9751 20.3926 26.5426 14.4693 33.11C14.0009 33.6272 13.5422 34.1444 13.0152 34.7299C13.269 34.7397 13.4251 34.7592 13.5812 34.7592C14.5376 34.7592 15.5037 34.7397 16.46 34.769C16.8308 34.7787 17.0845 34.6616 17.3383 34.3786C22.6273 28.465 27.9262 22.5611 33.225 16.6475C34.3082 15.4472 35.3914 14.2372 36.4844 13.0076ZM31.2733 37.1207C31.449 37.111 31.7125 37.0915 31.9759 37.072C35.6842 36.7499 38.114 33.3833 37.2358 29.7629C36.5624 26.9719 34.4546 25.3325 31.3807 25.2057C27.8481 25.0593 25.1255 27.6258 25.106 31.1291C25.0865 34.5445 27.6334 37.0524 31.2733 37.1207Z" stroke="#3272B1" stroke-width="3" stroke-miterlimit="10"/>
<rect x="5.2207" y="6.54541" width="38.6364" height="37.5" fill="white"/>
<path d="M22.3233 16.8211C22.3473 14.5073 20.5915 12.7845 18.2652 12.7845C17.1191 12.7845 16.0982 13.1709 15.358 13.8833C14.616 14.5975 14.2032 15.5944 14.1974 16.7216L14.1974 16.7217L18.3043 19.9946L18.3004 20.7446C18.3005 20.7446 18.3005 20.7446 18.3006 20.7446C19.4311 20.7503 20.4397 20.367 21.1716 19.6552C21.9043 18.9427 22.3117 17.9476 22.3233 16.8211ZM22.3233 16.8211L21.5733 16.8133L22.3233 16.8211C22.3233 16.8211 22.3233 16.8211 22.3233 16.8211ZM12.8745 17.8779L12.8744 17.8774C12.5471 16.1057 13.0142 14.3986 14.0674 13.2017C15.1096 12.0173 16.7768 11.2748 18.9824 11.5182C20.3269 11.6692 21.3807 12.1438 22.1538 12.8546C22.927 13.5655 23.4637 14.553 23.706 15.8044L23.7062 15.8054C24.3143 18.9232 22.1842 21.7813 19.0352 22.0671C19.0115 22.0687 18.9876 22.0704 18.9635 22.072C18.7289 22.0882 18.4804 22.1052 18.2941 22.1227C15.3681 22.0637 13.3364 20.3887 12.8745 17.8779Z" fill="#A0E2D9" stroke="#3272B1" stroke-width="1.5"/>
<path d="M16.4757 34.0191C15.8757 34.0068 15.2701 34.006 14.6707 34.0071C14.7888 33.8755 14.9066 33.7448 15.0255 33.6135L15.0266 33.6123L15.0288 33.6098C20.9514 27.0433 26.8744 20.4762 32.7878 13.8994L32.7906 13.8962C32.8694 13.8075 32.9141 13.7792 32.9351 13.7686C32.9491 13.7616 32.9784 13.7484 33.0542 13.7478C33.6353 13.7579 34.2176 13.7601 34.8054 13.76C34.7507 13.8212 34.6961 13.8823 34.6416 13.9434C33.9813 14.6827 33.3278 15.4145 32.6686 16.145L32.6672 16.1465C27.3683 22.0505 22.0693 27.9643 16.7801 33.8781C16.7022 33.9649 16.657 33.99 16.6366 33.9992C16.6188 34.0072 16.5788 34.0218 16.4801 34.0192L16.4757 34.0191Z" fill="#A0E2D9" stroke="#3272B1" stroke-width="1.5"/>
<path d="M25.8557 31.1355L25.8557 31.1332C25.8728 28.0626 28.2332 25.8259 31.3494 25.955L31.3495 25.955C32.76 26.0132 33.8971 26.4153 34.7476 27.0771C35.5947 27.7363 36.2051 28.6899 36.5064 29.9388L36.5066 29.9397C37.2764 33.1127 35.1632 36.0488 31.9165 36.3243C31.8383 36.33 31.7481 36.3355 31.6556 36.3412C31.5116 36.35 31.362 36.3591 31.2435 36.3701C28.0024 36.2996 25.8303 34.1008 25.8557 31.1355ZM31.31 35.1286L31.3101 35.1286C32.4342 35.117 33.4329 34.714 34.1527 33.9941C34.8731 33.2737 35.2726 32.2775 35.2726 31.1583C35.2726 28.8345 33.5338 27.1274 31.2107 27.1393L31.2106 27.1393C30.0889 27.1451 29.0925 27.5465 28.3753 28.27C27.6582 28.9932 27.2637 29.9943 27.2637 31.1193C27.2637 33.4493 28.9901 35.1524 31.31 35.1286Z" fill="#A0E2D9" stroke="#3272B1" stroke-width="1.5"/>
</svg>
