<svg width="60" height="39" viewBox="0 0 60 39" fill="none" xmlns="http://www.w3.org/2000/svg">
<path d="M59.9998 16.3821C59.9998 20.4727 59.9998 24.5633 59.9998 28.6435C59.9998 30.458 58.8993 31.8111 57.1985 32.0943C57.0384 32.1257 56.8684 32.1257 56.6983 32.1257C52.2162 32.1257 47.7341 32.1257 43.262 32.1257C42.8719 32.1257 42.8819 32.1257 42.8719 32.5348C42.8518 33.3529 42.9219 34.171 42.8318 34.9891C42.6017 36.9191 41.121 38.5134 39.2802 38.807C37.8395 39.0378 36.5889 38.6183 35.5385 37.5589C35.3984 37.412 35.3184 37.412 35.1783 37.5589C33.5275 39.2581 30.9663 39.321 29.2355 37.6952C28.9354 37.412 28.9354 37.412 28.6353 37.6848C27.1746 39.0273 25.2737 39.2581 23.5729 38.2721C22.9426 37.905 22.4424 37.3806 22.0522 36.7303C21.8821 36.4366 21.8721 36.4471 21.612 36.6359C20.7016 37.3072 19.7811 37.9784 18.8707 38.6392C18.6606 38.7966 18.4305 38.8595 18.1804 38.8595C12.4978 38.8595 6.81513 38.8595 1.13249 38.8595C0.472185 38.8595 0.00196639 38.3665 0.00196639 37.7057C0.00196639 37.0345 0.472185 36.5625 1.1425 36.5625C6.58502 36.5625 12.0375 36.5625 17.4801 36.5625C17.7202 36.5625 17.9203 36.51 18.1104 36.3632C20.1613 34.8528 22.2123 33.3529 24.2632 31.853C26.1141 30.5 27.9649 29.1469 29.8158 27.7834C32.1869 26.0423 34.548 24.2801 36.9391 22.56C37.7595 21.9621 38.3398 21.2384 38.5098 20.1895C38.77 18.5953 37.7895 16.98 36.3088 16.5395C35.9586 16.4346 35.5985 16.4031 35.2383 16.4136C34.628 16.4451 34.0077 16.3402 33.4075 16.5185C32.9673 16.6548 32.5671 16.8961 32.1669 17.1163C28.195 19.1931 24.2332 21.2699 20.2614 23.3571C19.0708 23.976 17.8803 24.6053 16.6897 25.2241C16.1294 25.5178 15.5492 25.392 15.219 24.9305C14.7888 24.3326 15.0089 23.504 15.6592 23.1579C16.7597 22.581 17.8502 22.0041 18.9608 21.4377C19.1909 21.3223 19.2709 21.165 19.2709 20.9028C19.2609 15.8052 19.2709 10.6972 19.2609 5.59971C19.2609 5.20113 19.2609 5.20113 18.8807 5.19065C18.4705 5.19065 18.0503 5.19065 17.6401 5.19065C16.7197 5.18016 15.9894 5.59971 15.3191 6.20805C14.1685 7.24644 12.998 8.26385 11.8275 9.28125C10.3968 10.5294 8.95612 11.7671 7.52546 13.0048C6.34491 14.0327 5.16436 15.0605 3.99382 16.0989C3.75371 16.3087 3.49359 16.4241 3.17344 16.4136C2.49312 16.4031 1.82281 16.4241 1.1425 16.4136C0.222069 16.3926 -0.288168 15.4277 0.172045 14.6305C0.402152 14.2319 0.762319 14.0956 1.18251 14.0956C1.65273 14.0851 2.13296 14.0851 2.60317 14.0956C2.76325 14.0956 2.89331 14.0536 3.01336 13.9487C5.16436 12.0503 7.33537 10.1623 9.49637 8.27433C11.0971 6.86884 12.7079 5.47384 14.3186 4.07884C15.269 3.27121 16.3696 2.9041 17.5901 2.87263C18.1204 2.86215 18.6406 2.86215 19.1709 2.87263C19.3609 2.87263 19.461 2.8097 19.551 2.6209C20.1613 1.35177 21.1318 0.649022 22.5024 0.649022C31.9268 0.649022 41.3512 0.649022 50.7755 0.649022C52.7364 0.649022 54.6973 0.690977 56.6483 0.638534C58.5391 0.58609 60.0198 2.2538 59.9998 4.16275C59.9698 8.23238 59.9998 12.3125 59.9998 16.3821ZM30.8963 29.8287C31.1364 29.8287 31.2965 29.8287 31.4566 29.8287C34.578 29.8287 37.6895 29.8287 40.8109 29.8287C43.152 29.8287 45.5031 29.8182 47.8442 29.8182C50.7855 29.8182 53.7269 29.8287 56.6683 29.8287C57.3386 29.8287 57.7888 29.3672 57.7888 28.654C57.7988 26.8289 57.7988 25.0039 57.7988 23.1893C57.7988 21.5636 57.7788 19.9273 57.7788 18.3016C57.7788 16.3192 57.7888 14.3473 57.7888 12.3649C57.7888 11.9664 57.8788 11.9559 57.3786 11.9559C48.4144 11.9559 39.4403 11.9559 30.4761 11.9559C27.5848 11.9559 24.6934 11.9559 21.8021 11.9559C21.582 11.9559 21.4419 11.9664 21.4419 12.2705C21.4519 14.7983 21.4519 17.3156 21.4419 19.8434C21.4419 20.0742 21.4919 20.1161 21.692 20.0112C23.2227 19.2036 24.7534 18.396 26.2842 17.5988C27.8249 16.7912 29.3656 15.9836 30.9063 15.1864C31.5066 14.8718 32.0868 14.5256 32.7372 14.3368C33.8577 14.0222 34.9982 14.0641 36.1387 14.1795C37.1392 14.2844 38.0496 14.7144 38.8 15.4067C40.1906 16.6758 40.8609 18.2911 40.6908 20.242C40.5508 21.7838 39.9105 23.0635 38.7499 24.0284C37.7195 24.8885 36.5989 25.6227 35.5285 26.4199C34.558 27.1436 33.5675 27.8463 32.5871 28.5596C32.0568 28.9476 31.5066 29.3672 30.8963 29.8287ZM39.6404 9.61689C43.142 9.61689 46.6536 9.61689 50.1552 9.61689C52.5864 9.61689 55.0175 9.61689 57.4586 9.61689C57.8088 9.61689 57.8088 9.61689 57.8188 9.24979C57.8288 8.75682 57.8088 8.27433 57.8288 7.78136C57.8388 7.49817 57.7388 7.42475 57.4786 7.42475C55.5277 7.43524 53.5768 7.42475 51.6359 7.42475C48.8646 7.42475 46.0833 7.42475 43.3121 7.42475C40.3407 7.42475 37.3793 7.41426 34.4079 7.41426C32.477 7.41426 30.5461 7.41426 28.6152 7.41426C26.3542 7.41426 24.0831 7.42475 21.8221 7.41426C21.552 7.41426 21.4719 7.50866 21.4819 7.78136C21.5019 8.2114 21.4819 8.65193 21.4919 9.08197C21.4919 9.65885 21.4419 9.6064 21.9822 9.6064C27.8549 9.61689 33.7476 9.61689 39.6404 9.61689ZM39.6404 5.1382C44.1324 5.1382 48.6345 5.1382 53.1266 5.1382C54.5673 5.1382 56.008 5.1382 57.4486 5.1382C57.8088 5.1382 57.8088 5.1382 57.8088 4.75012C57.8088 4.51937 57.8188 4.28861 57.8088 4.05786C57.7888 3.42854 57.3686 2.98801 56.7783 2.95654C56.6683 2.94606 56.5482 2.95654 56.4382 2.95654C50.1352 2.95654 43.8223 2.95654 37.5194 2.95654C32.5671 2.95654 27.6148 2.95654 22.6625 2.95654C21.8921 2.95654 21.4819 3.38658 21.4819 4.2047C21.4819 4.3935 21.4819 4.57181 21.4819 4.76061C21.4819 5.14869 21.4819 5.14869 21.8421 5.14869C27.7648 5.1382 33.6976 5.1382 39.6404 5.1382ZM38.5799 32.1257C37.9696 32.1257 37.3493 32.1362 36.739 32.1257C36.5289 32.1257 36.4389 32.1991 36.4489 32.4299C36.4589 33.0382 36.4489 33.6466 36.4489 34.2549C36.4489 34.9996 36.709 35.608 37.2693 36.08C37.8996 36.6149 38.6099 36.7093 39.3502 36.4051C40.0806 36.101 40.5308 35.5241 40.6408 34.6955C40.7409 33.9508 40.6608 33.1851 40.6908 32.4404C40.7008 32.2096 40.6108 32.1362 40.4007 32.1362C39.7904 32.1257 39.1801 32.1257 38.5799 32.1257ZM32.1469 32.1257C31.5266 32.1257 30.8963 32.1257 30.276 32.1257C30.1159 32.1257 30.0059 32.1572 30.0059 32.367C30.0259 33.1117 29.9659 33.8564 30.0459 34.6011C30.166 35.6919 31.0064 36.51 32.0668 36.5625C33.0673 36.6149 34.0077 35.8492 34.1878 34.7899C34.3279 33.9717 34.2178 33.1431 34.2479 32.3145C34.2579 32.1152 34.1178 32.1362 33.9877 32.1362C33.3774 32.1257 32.7672 32.1257 32.1469 32.1257ZM27.8249 33.4368C27.8249 33.0907 27.8249 32.7341 27.8249 32.3879C27.8249 32.3145 27.8549 32.2096 27.7648 32.1677C27.6948 32.1362 27.6348 32.2096 27.5848 32.2516C27.1646 32.5558 26.7544 32.8599 26.3342 33.1746C25.5438 33.7515 24.7535 34.3388 23.9631 34.9157C23.823 35.0206 23.723 35.1045 23.823 35.3143C24.2432 36.2058 25.2137 36.7198 26.1541 36.51C27.0945 36.3002 27.8049 35.4297 27.8349 34.4332C27.8349 34.0976 27.8249 33.762 27.8249 33.4368Z" fill="#3272B1"/>
<path d="M51.4169 18.6058C52.4674 18.6058 53.5279 18.6058 54.5784 18.6058C55.2887 18.6058 55.7289 19.0673 55.7289 19.812C55.7289 21.2699 55.7289 22.7174 55.7289 24.1753C55.7289 24.92 55.2887 25.3815 54.5684 25.3815C53.718 25.371 52.8676 25.371 52.0172 25.392C51.3169 25.413 50.6165 25.371 49.9162 25.392C49.3159 25.413 48.7057 25.4025 48.1054 25.371C47.5551 25.3395 47.1149 24.8675 47.1149 24.2802C47.1049 22.7383 47.1049 21.207 47.1149 19.6651C47.1149 19.0673 47.5751 18.6058 48.1454 18.6058C49.2359 18.6058 50.3264 18.6163 51.4169 18.6058C51.4169 18.6163 51.4169 18.6058 51.4169 18.6058ZM51.3969 23.095C52.0072 23.095 52.6275 23.095 53.2378 23.095C53.4279 23.095 53.5079 23.032 53.5079 22.8222C53.4979 22.2768 53.4979 21.7314 53.5079 21.1965C53.5079 20.9867 53.4379 20.9028 53.2378 20.9028C52.0172 20.9133 50.7966 20.9133 49.5761 20.9028C49.376 20.9028 49.2959 20.9657 49.2959 21.186C49.3059 21.7104 49.3059 22.2349 49.2959 22.7593C49.2859 23.011 49.356 23.1054 49.6061 23.095C50.2064 23.0845 50.7966 23.095 51.3969 23.095Z" fill="#3272B1"/>
</svg>
