<svg width="45" height="52" viewBox="0 0 45 52" fill="none" xmlns="http://www.w3.org/2000/svg">
<path d="M42.8118 13.583C42.8118 17.0678 41.301 20.0692 39.6493 23.0102C38.0982 25.7698 36.2249 28.2878 34.2105 30.7252C32.7199 32.5381 30.4034 32.7194 28.9732 31.0273C25.6293 27.059 22.6279 22.8692 20.8956 17.9138C19.0222 12.5556 20.6539 7.05644 25.0049 4.0349C31.7127 -0.638421 41.0392 3.14858 42.5902 11.206C42.7312 11.9715 42.832 12.7772 42.8118 13.583ZM31.4105 17.229C33.6062 17.2491 35.3385 15.5772 35.3788 13.4017C35.4191 11.3067 33.6263 9.49381 31.4911 9.47367C29.3357 9.45353 27.543 11.1859 27.5228 13.3211C27.4825 15.4563 29.235 17.2088 31.4105 17.229Z" stroke="#3272B1" stroke-width="2.7" stroke-miterlimit="10"/>
<path d="M14.7734 31.3093C14.7936 30.5842 15.1159 30.1611 15.6598 29.9597C17.4727 29.2748 19.3057 28.5899 21.1388 27.9655C21.9043 27.7036 22.6697 27.8446 22.9517 28.7108C23.2338 29.5568 22.7906 30.141 22.005 30.4432C20.8568 30.9065 19.6885 31.3496 18.5201 31.7525C17.9763 31.9338 17.8554 32.2158 18.0568 32.7194C18.7417 34.5726 19.4266 36.4258 20.0712 38.2992C20.3129 39.0042 20.7359 38.8833 21.2597 38.702C26.3359 36.8488 31.3919 34.9956 36.4681 33.1424C36.9717 32.9611 37.4753 32.7798 37.9789 32.6187C38.7443 32.3769 39.3083 32.6388 39.6105 33.364C39.9328 34.1294 39.5702 34.6733 38.8853 35.0158C38.3213 35.2978 37.717 35.5193 37.1127 35.7006C36.448 35.8819 36.3674 36.2445 36.6292 36.8085C36.871 37.3524 37.0523 37.9366 37.2336 38.5207C37.4753 39.2862 37.2134 39.8502 36.4882 40.1524C35.7228 40.4747 35.1789 40.1121 34.8365 39.4272C34.5545 38.8229 34.3329 38.1783 34.1113 37.5538C33.9501 37.0704 33.7084 36.9093 33.225 37.0905C29.438 38.4805 25.6711 39.8502 21.8841 41.22C21.2194 41.4617 21.3604 41.8646 21.5417 42.3279C22.1863 44.0602 22.8107 45.7926 23.4352 47.5249C23.556 47.8472 23.6769 48.1494 23.7575 48.4717C23.9589 49.2573 23.7978 49.9019 22.992 50.204C22.1661 50.5062 21.6021 50.0832 21.3201 49.3379C20.6554 47.6256 20.0309 45.8732 19.4065 44.1408C17.9561 40.1322 16.4856 36.1438 15.0353 32.1352C14.9346 31.8331 14.8339 31.5108 14.7734 31.3093Z" fill="#3272B1"/>
<path d="M19.3246 50.627C19.2843 51.2716 19.0224 51.7349 18.4584 51.9162C17.8944 52.0975 17.3707 51.9968 17.0282 51.4932C16.7865 51.1306 16.6253 50.7278 16.4843 50.3047C15.0743 46.4573 13.6642 42.63 12.2945 38.7625C11.9923 37.9164 11.67 37.6949 10.7837 38.0373C8.08446 39.0848 5.36507 40.0315 2.64569 41.0186C2.54497 41.0588 2.46439 41.079 2.36368 41.1193C1.13492 41.5624 0.409746 41.361 0.0874485 40.4948C-0.214706 39.6891 0.268741 39.0243 1.4975 38.561C3.51186 37.8157 5.52622 37.0905 7.56073 36.3654C8.40676 36.0632 9.25279 35.7006 10.119 35.4589C10.8643 35.2373 10.9449 34.915 10.683 34.21C9.59523 31.3295 8.54776 28.4087 7.48015 25.5281C7.37943 25.2461 7.27872 24.9641 7.19814 24.6619C6.95642 23.8361 7.25857 23.2519 8.02403 22.9699C8.78949 22.6879 9.31322 23.1109 9.63552 23.7958C9.81681 24.1986 9.95782 24.6015 10.0988 25.0245C13.0599 33.2028 16.021 41.361 18.9822 49.5393C19.1232 49.922 19.2239 50.3048 19.3246 50.627Z" fill="#3272B1"/>
<path d="M14.3076 28.0058C13.804 27.9856 13.381 27.6231 13.1393 26.9986C12.676 25.7094 12.2127 24.4001 11.7695 23.1109C11.4875 22.3253 11.7091 21.7008 12.4947 21.3785C13.3206 21.0361 13.8644 21.4793 14.1867 22.2044C14.4687 22.849 14.7306 23.5138 14.932 24.1785C15.1133 24.8634 15.4155 25.0447 16.0802 24.7425C16.6442 24.4807 17.2687 24.2792 17.8931 24.1181C18.5579 23.9569 19.0816 24.2389 19.3838 24.8634C19.6859 25.4677 19.5046 25.9713 19.0212 26.3943C18.6788 26.6562 14.9522 28.0058 14.3076 28.0058Z" fill="#3272B1"/>
</svg>
