<svg width="25" height="21" viewBox="0 0 25 21" fill="none" xmlns="http://www.w3.org/2000/svg">
<path d="M1 8.08119C1 7.15492 1.14776 6.2524 1.71416 5.46863C2.72384 3.99609 4.7432 3.56858 6.44241 4.47111C6.61479 4.56611 6.76255 4.66111 6.91031 4.75611C7.62447 5.15987 8.36326 5.18362 9.07742 4.75611C9.79158 4.3286 10.5304 4.01985 11.3923 4.01985C13.1408 4.01985 14.5445 5.18362 14.8892 6.89366C15.1355 8.17619 14.9385 9.43497 14.6183 10.67C14.3721 11.62 14.1012 12.5463 13.9042 13.4963C13.6333 14.7313 13.4609 15.9664 13.1654 17.2014C12.993 17.9377 12.6975 18.6502 12.2788 19.3152C11.5893 20.384 10.4319 20.0515 9.91471 19.339C9.44682 18.6739 9.27443 17.9139 9.12667 17.1302C9.00354 16.4889 8.88041 15.8476 8.70803 15.2301C8.63415 14.9451 8.43714 14.7076 8.06774 14.6838C7.67372 14.6601 7.42746 14.8263 7.32896 15.1589C7.15657 15.8001 7.00881 16.4651 6.88568 17.1064C6.73792 17.8902 6.59017 18.6502 6.12227 19.3152C5.876 19.6477 5.55586 19.8852 5.16184 19.9565C4.57081 20.0752 4.07829 19.8615 3.83202 19.3627C3.48725 18.7214 3.11786 18.0564 2.94548 17.3677C2.62533 16.2276 2.37907 15.0639 2.23131 13.9001C2.0343 12.8788 1.73879 11.8575 1.44327 10.86C1.17238 9.95748 1.02463 9.03121 1 8.08119Z" stroke="#4382B7" stroke-width="2" stroke-miterlimit="10"/>
<path d="M13 4.67554V8.27119H16.5211V12H20.3424V8.27119H24V4.67554H20.3424V1H16.5211V4.67554H13Z" fill="white" stroke="#4382B7" stroke-width="2" stroke-miterlimit="10" stroke-linecap="round" stroke-linejoin="round"/>
</svg>
