<svg width="55" height="63" viewBox="0 0 55 63" fill="none" xmlns="http://www.w3.org/2000/svg">
<path d="M51.5195 22.5351H50.0282V15.2349C50.0282 15.1894 50.0211 15.1436 50.0151 15.0975C50.0127 14.8076 49.9217 14.523 49.7261 14.2974L37.7522 0.422496C37.7485 0.418934 37.745 0.417671 37.7426 0.413879C37.6713 0.332987 37.5881 0.265655 37.4999 0.207514C37.4739 0.189819 37.4477 0.174996 37.4204 0.159485C37.3442 0.11743 37.2633 0.0823851 37.1801 0.0569916C37.1575 0.050672 37.1372 0.0415947 37.1148 0.03539C37.0243 0.0135585 36.9304 0 36.8353 0H7.40737C6.06365 0 4.97196 1.10869 4.97196 2.47063V22.5344H3.48066C1.5587 22.5344 0 24.1147 0 26.0654V44.4282C0 46.3771 1.5587 47.9593 3.48066 47.9593H4.97196V60.5295C4.97196 61.8915 6.06365 63 7.40737 63H47.5926C48.9352 63 50.028 61.8915 50.028 60.5295V47.9594H51.5193C53.4411 47.9594 55 46.3779 55 44.4283V26.0661C55.0001 24.1148 53.4412 22.5351 51.5195 22.5351ZM7.40737 2.47063H35.6176V15.1106C35.6176 15.7935 36.1632 16.3459 36.8353 16.3459H47.5927V22.535H7.40737V2.47063ZM19.4204 25.8579H24.1414L25.7344 29.2245C26.2731 30.3455 26.6786 31.2493 27.1102 32.2897H27.1646C27.5948 31.1128 27.9462 30.2913 28.4049 29.2245L29.9439 25.8579H34.6388L29.5121 34.862L34.908 44.3052H30.159L28.5138 40.9662C27.8391 39.6796 27.407 38.7224 26.8941 37.6541H26.84C26.4623 38.7224 26.0039 39.6796 25.4376 40.9662L23.927 44.3052H19.2314L24.4934 34.9724L19.4204 25.8579ZM3.9326 29.3613V25.858H17.908V29.3613H12.9436V44.3042H8.81678V29.3613H3.9326ZM47.5927 59.8598H7.40737V47.9594H47.5926V59.8598H47.5927ZM49.8842 29.3613H44.9195V44.3042H40.7917V29.3613H35.9076V25.858H49.8843V29.3613H49.8842Z" fill="#3272B1"/>
</svg>
