<svg width="73" height="80" viewBox="0 0 73 80" fill="none" xmlns="http://www.w3.org/2000/svg">
<path d="M16.5984 24.6495H5.18493C2.90224 24.6495 1 26.5517 1 28.8344V58.1289C1 60.4116 2.90224 62.3139 5.18493 62.3139H8.79919V77.0562C8.79919 78.2927 10.2259 78.8634 11.0819 78.0073L26.2998 62.7894H67.0078C69.2905 62.7894 71.1927 60.8872 71.1927 58.6045V28.8344C71.1927 26.5517 69.2905 24.6495 67.0078 24.6495H56.2601" stroke="#3272B1" stroke-width="2" stroke-miterlimit="10" stroke-linecap="round" stroke-linejoin="round"/>
<path d="M26.8704 16.2796C23.922 15.8992 21.0686 15.5187 18.1201 15.2334C18.1201 14.2823 18.3103 13.3311 18.5957 12.38C19.3566 9.52666 20.9735 7.24397 23.1611 5.34173C25.634 3.05904 28.5824 1.82258 31.9114 1.34702C35.5256 0.776352 39.1399 0.871464 42.7541 1.9177C46.3684 2.86882 49.412 4.86617 51.5996 7.81464C55.0236 12.38 54.8334 17.8965 51.124 22.2717C49.412 24.1739 47.5097 25.7908 45.5124 27.5028C44.371 28.454 43.2297 29.4051 42.1835 30.4513C40.8519 31.6878 40.2812 33.2096 40.1861 35.0167C40.1861 35.8727 40.1861 36.6336 40.1861 37.4896C37.2376 37.4896 34.3843 37.4896 31.4358 37.4896C31.4358 37.3945 31.3407 37.3945 31.3407 37.2994C31.2456 35.1118 31.2456 33.0193 31.8163 30.9269C32.3869 28.7393 33.5283 26.9322 35.2403 25.4104C36.8572 23.8886 38.5692 22.557 40.1861 21.1303C41.0421 20.3694 41.8981 19.7037 42.7541 18.9428C45.2271 16.6601 45.2271 13.0458 42.8493 10.668C41.4226 9.24133 39.7106 8.48043 37.7132 8.29021C36.0012 8.09998 34.1941 8.29021 32.5772 8.86088C29.914 9.812 28.2971 11.8094 27.4411 14.3774C27.2509 14.9481 27.1558 15.6138 26.8704 16.2796Z" fill="white" stroke="#3272B1" stroke-width="2" stroke-miterlimit="10" stroke-linecap="round" stroke-linejoin="round"/>
<path d="M31.5312 49.8542C31.5312 46.8106 31.5312 43.767 31.5312 40.7234C34.3846 40.7234 37.238 40.7234 40.1865 40.7234C40.1865 43.767 40.1865 46.8106 40.1865 49.8542C37.238 49.8542 34.3846 49.8542 31.5312 49.8542Z" fill="white" stroke="#3272B1" stroke-width="2" stroke-miterlimit="10" stroke-linecap="round" stroke-linejoin="round"/>
</svg>
